<svg width="169" height="667" viewBox="0 0 169 667" fill="none" xmlns="http://www.w3.org/2000/svg">
<g clip-path="url(#clip0_6_241)">
<path d="M53.2389 324.365C53.2389 324.365 69.6817 107.47 4.54652 -15.9413C-17.5493 -57.8185 -43.0807 -84.2227 -67.1876 -100.812C-117.438 -135.416 -185.503 -103.475 -191.639 -42.4273C-194.584 -13.1507 -191.016 23.5474 -173.493 67.5785C-121.845 197.324 53.2389 324.365 53.2389 324.365Z" fill="#2F8C91"/>
<path d="M-105.228 -8.90547C-101.171 -0.162918 -97.1312 8.57526 -93.0742 17.3178C-114.342 45.6174 -135.627 73.9127 -156.899 102.23C-156.35 103.222 -155.8 104.215 -155.229 105.194C-134.017 76.9728 -112.805 48.7517 -91.5921 20.5307C-87.7667 28.788 -83.9282 37.0672 -80.1028 45.3246C-100.023 72.7255 -121.132 99.2121 -143.372 124.688C-142.78 125.58 -142.21 126.485 -141.618 127.377C-119.472 102.062 -98.4644 75.7724 -78.6076 48.5593C-74.9265 56.5019 -71.2454 64.4445 -67.5644 72.3871C-87.5403 97.4942 -107.512 122.584 -127.488 147.691C-126.853 148.557 -126.219 149.422 -125.567 150.292C-105.749 125.386 -85.9094 100.467 -66.0911 75.5607C-62.2265 83.8836 -58.3833 92.2196 -54.5187 100.542C-71.1535 125.592 -88.7913 149.941 -107.411 173.503C-106.73 174.325 -106.066 175.142 -105.38 175.947C-86.9517 152.652 -69.4751 128.595 -52.9843 103.843C-49.0146 112.415 -45.0449 120.987 -41.058 129.563C-56.303 151.853 -72.4822 173.46 -89.5573 194.301C-88.8675 195.088 -88.1564 195.862 -87.4667 196.649C-70.6045 176.087 -54.6121 154.804 -39.5367 132.842C-36.3015 139.818 -33.0706 146.812 -29.8354 153.789C-42.8002 174.49 -56.6772 194.57 -71.4323 213.963C-70.6997 214.724 -69.9844 215.481 -69.2519 216.242C-54.7222 197.181 -41.0618 177.472 -28.279 157.151C-24.3313 165.661 -20.3836 174.172 -16.4359 182.683C-25.8501 201.452 -37.208 219.097 -50.3224 235.368C-49.5815 236.094 -48.8406 236.82 -48.0825 237.55C-35.262 221.668 -24.1241 204.486 -14.7791 186.237C-13.4413 189.135 -12.0862 192.038 -10.7483 194.936C-10.7913 195.499 -10.5806 196.072 -10.0488 196.448C-9.06955 198.551 -8.10758 200.649 -7.12837 202.752C-14.3074 219.662 -24.3923 235.036 -36.9579 248.24C-36.1956 248.953 -35.4505 249.661 -34.6882 250.374C-22.5241 237.55 -12.6326 222.757 -5.39263 206.511C-2.4372 212.897 0.522401 219.266 3.47784 225.653C-3.46597 238.972 -11.3475 251.7 -20.1369 263.789C-19.3532 264.489 -18.5867 265.185 -17.803 265.885C-9.31576 254.219 -1.67163 241.949 5.10847 229.163C7.86261 235.09 10.5953 241.031 13.3495 246.958C7.38941 255.005 1.45075 263.038 -4.50934 271.084C-5.48414 272.412 -6.4976 273.748 -7.47242 275.075C-6.68456 275.757 -5.91393 276.435 -5.1433 277.113C-3.68316 275.131 -2.19689 273.193 -0.745091 271.246C4.45726 264.23 9.64237 257.209 14.8447 250.193C17.1749 255.216 19.492 260.216 21.8221 265.239C17.7546 273.322 13.3632 281.23 8.62177 288.92C9.42686 289.607 10.2361 290.276 11.0282 290.941C15.468 283.749 19.6226 276.374 23.4705 268.828C26.1855 274.69 28.9046 280.534 31.6023 286.392C28.9086 291.322 26.0118 296.107 22.8772 300.74C23.7037 301.414 24.5172 302.065 25.3133 302.713C28.116 298.552 30.7672 294.26 33.224 289.862C34.8677 293.394 36.4942 296.922 38.1379 300.454C36.5644 303.371 35.0081 306.292 33.4388 309.192C34.2825 309.87 35.1001 310.504 35.9005 311.134C37.1855 308.737 38.4705 306.34 39.7513 303.96C42.2038 309.236 44.639 314.508 47.0873 319.801C51.0363 322.789 53.22 324.365 53.22 324.365C53.22 324.365 53.4281 321.73 53.6882 316.885C50.9602 311.001 48.2322 305.117 45.5042 299.234C48.3584 300.757 51.3054 302.045 54.3156 303.144C54.3505 302.078 54.3896 300.995 54.4371 299.876C50.5855 298.396 46.8345 296.57 43.231 294.355C41.3207 290.255 39.4318 286.142 37.5215 282.041C43.0831 285.014 48.8256 287.458 54.7491 289.373C54.7841 288.307 54.8018 287.237 54.8279 286.131C48.5936 284.063 42.5266 281.369 36.7303 278.078C36.3459 277.85 35.9672 277.828 35.6195 277.906C32.1219 270.344 28.6201 262.799 25.1225 255.237C34.9739 259.616 44.9686 263.624 55.0812 267.291C55.0859 266.199 55.0947 265.089 55.0863 263.975C44.2879 260.041 33.624 255.696 23.1291 250.949C19.9771 244.16 16.8293 237.354 13.6773 230.565C27.3024 236.368 41.084 241.822 54.9662 246.931C54.9578 245.817 54.928 244.716 54.9065 243.579C40.3729 238.212 25.9655 232.47 11.7058 226.338C7.84117 218.015 3.98076 209.675 0.116183 201.352C17.9188 209.646 36.0171 217.236 54.3726 224.132C54.3297 223.009 54.2868 221.886 54.2481 220.745C35.2282 213.569 16.4822 205.629 -1.94261 196.955C-4.49129 191.469 -7.0358 185.965 -9.58448 180.479C11.3125 186.224 32.2095 191.969 53.1065 197.714C53.038 196.622 52.9696 195.529 52.9053 194.419C31.5126 188.53 10.1158 182.658 -11.2941 176.764C-16.2299 166.111 -21.1657 155.458 -26.1016 144.805C-0.786103 156.475 25.1208 166.738 51.5027 175.547C51.4081 174.411 51.3094 173.293 51.2148 172.157C24.2202 163.08 -2.26972 152.502 -28.13 140.434C-32.6591 130.682 -37.1709 120.934 -41.6958 111.164C-11.9812 119.95 17.7508 128.741 47.4655 137.527C47.315 136.395 47.1818 135.268 47.0271 134.153C16.8685 125.236 -13.2902 116.318 -43.453 107.418C-45.1798 103.698 -46.9066 99.9779 -48.6162 96.2623C-50.719 91.7424 -52.8003 87.2094 -54.903 82.6895C-22.1724 91.6316 10.5754 100.578 43.306 109.52C43.1169 108.397 42.932 107.257 42.7256 106.129C9.61585 97.0905 -23.507 88.03 -56.6168 78.9914C-59.8519 72.0148 -63.087 65.0383 -66.3221 58.0617C-32.002 63.9426 2.31824 69.8235 36.6426 75.687C36.3935 74.5857 36.1443 73.4844 35.8779 72.3787C1.46738 66.4933 -32.939 60.5905 -67.3495 54.7051C-67.5433 54.6743 -67.7109 54.6873 -67.8785 54.7002C-72.4996 44.7206 -77.1249 34.7585 -81.746 24.7788C-44.7523 32.1742 -7.76277 39.5871 29.2309 46.9824C28.8956 45.8592 28.5644 44.7185 28.2291 43.5953C-8.97141 36.1472 -46.1719 28.6992 -83.3766 21.2687C-86.8392 13.7895 -90.3059 6.32768 -93.7685 -1.15157C-57.2627 2.00517 -20.7354 5.14881 15.7704 8.30555C15.3192 7.20842 14.8638 6.12876 14.3911 5.04471C-22.1706 1.89229 -58.7454 -1.282 -95.3071 -4.43442C-98.984 -12.3945 -102.682 -20.3415 -106.359 -28.3016C-71.0362 -29.1526 -35.6809 -27.9938 -0.452374 -24.8471C-1.09739 -25.975 -1.72932 -27.081 -2.38267 -28.174C-37.4513 -31.2244 -72.6427 -32.3044 -107.802 -31.3746C-113.791 -44.2786 -119.759 -57.1957 -125.748 -70.0997C-94.1192 -70.9458 -62.4745 -70.2495 -30.9088 -68.0721C-31.9152 -69.2179 -32.9127 -70.3243 -33.9274 -71.4351C-64.7953 -73.4719 -95.734 -74.0627 -126.636 -73.1984C-126.821 -73.1898 -126.993 -73.1594 -127.155 -73.0897C-129.682 -78.5144 -132.187 -83.9523 -134.714 -89.3771C-109.513 -91.1734 -84.3166 -92.9523 -59.133 -94.753C-60.3963 -95.7417 -61.6678 -96.6955 -62.9263 -97.6274C-87.3277 -95.8871 -111.729 -94.1467 -136.126 -92.4238C-138.61 -97.8005 -141.11 -103.182 -143.598 -108.541C-145.797 -107.599 -147.969 -106.54 -150.085 -105.41C-149.399 -103.92 -148.712 -102.429 -148.026 -100.938C-162.256 -83.8212 -176.487 -66.704 -190.713 -49.6042C-191.085 -47.6603 -191.376 -45.677 -191.619 -43.663C-176.599 -61.7101 -161.598 -79.7615 -146.575 -97.8261C-144.358 -93.0177 -142.12 -88.2224 -139.903 -83.414C-157.485 -61.9047 -175.054 -40.3736 -192.635 -18.8644C-192.602 -17.3177 -192.539 -15.7447 -192.458 -14.1673C-174.459 -36.2004 -156.455 -58.251 -138.439 -80.2798C-134.989 -72.8224 -131.535 -65.3825 -128.086 -57.9251C-148.466 -33.8845 -168.828 -9.83961 -189.208 14.2009C-188.97 15.5032 -188.732 16.8055 -188.464 18.134C-167.854 -6.18158 -147.262 -30.5015 -126.656 -54.7996C-123.635 -48.3039 -120.636 -41.7951 -117.615 -35.2994C-117.532 -35.1114 -117.445 -34.9409 -117.362 -34.753C-137.773 -8.05162 -159.543 17.5255 -182.582 41.9085C-182.251 43.0492 -181.902 44.1943 -181.537 45.3438C-158.352 20.8866 -136.449 -4.78647 -115.892 -31.562C-115.508 -30.7227 -115.123 -29.8834 -114.734 -29.0616C-114.689 -28.8649 -114.606 -28.677 -114.493 -28.537C-111.971 -23.0948 -109.448 -17.6526 -106.93 -12.1929C-126.7 18.0264 -147.892 47.2349 -170.421 75.3803C-169.944 76.4469 -169.488 77.5265 -168.994 78.5975C-146.263 50.4479 -125.058 21.2613 -105.228 -8.90547Z" fill="#286F7F"/>
<path d="M-6.75183 297.104C-6.75183 297.104 -109.211 411.356 -138.218 513.136C-148.06 547.682 -149.703 575.181 -147.564 596.435C-143.113 640.773 -102.208 656.354 -72.7821 624.948C-58.6646 609.882 -43.8229 587.423 -31.223 553.918C5.88615 455.24 -6.75183 297.104 -6.75183 297.104Z" fill="#BAE3DD"/>
<path d="M-91.9363 563.395C-89.6555 556.458 -87.3896 549.533 -85.1088 542.596C-64.219 537.133 -43.3183 531.674 -22.4285 526.212C-22.2032 525.384 -21.9888 524.552 -21.7743 523.721C-42.6124 529.167 -63.4505 534.614 -84.2778 540.063C-82.1305 533.511 -79.9683 526.947 -77.821 520.394C-57.8546 514.777 -37.8333 510.247 -17.8105 506.866C-17.6411 506.068 -17.4716 505.27 -17.3063 504.486C-37.2148 507.839 -57.1311 512.291 -76.9817 517.833C-74.9199 511.537 -72.8431 505.23 -70.7812 498.935C-51.8169 494.634 -32.8417 490.338 -13.8774 486.037C-13.7405 485.229 -13.6078 484.436 -13.4817 483.625C-32.3059 487.889 -51.1301 492.153 -69.9543 496.417C-67.7797 489.81 -65.62 483.213 -63.4453 476.606C-45.8121 470.691 -28.1028 465.664 -10.3474 461.548C-10.2513 460.759 -10.1512 459.956 -10.0551 459.167C-27.6146 463.217 -45.1346 468.159 -62.5744 473.976C-60.3459 467.18 -58.1132 460.37 -55.8738 453.578C-40.0098 448.526 -24.0831 444.327 -8.13454 441C-8.06437 440.219 -7.99005 439.424 -7.91989 438.643C-23.6507 441.91 -39.3664 446.032 -55.0112 450.977C-53.1907 445.441 -51.381 439.903 -49.5605 434.368C-35.2935 429.084 -20.9555 424.623 -6.56412 420.965C-6.51567 420.178 -6.46722 419.39 -6.4079 418.606C-20.5516 422.182 -34.6636 426.554 -48.6813 431.709C-46.4652 424.957 -44.2491 418.204 -42.033 411.452C-30.0215 405.516 -17.7455 401.169 -5.38187 398.454C-5.34841 397.677 -5.32582 396.898 -5.29236 396.121C-17.3716 398.75 -29.3466 402.952 -41.1082 408.634C-40.3543 406.33 -39.6046 404.041 -38.8398 401.74C-38.5775 401.442 -38.3948 401.01 -38.4484 400.538C-37.9026 398.879 -37.3527 397.205 -36.807 395.546C-26.4898 389.552 -15.7239 385.864 -4.93792 384.621C-4.91532 383.841 -4.90772 383.073 -4.88511 382.293C-15.349 383.524 -25.789 386.98 -35.8258 392.572C-34.1637 387.508 -32.5058 382.458 -30.8437 377.394C-22.2176 373.309 -13.4797 370.029 -4.67339 367.54C-4.6725 366.754 -4.6649 365.986 -4.65315 365.203C-13.16 367.593 -21.5861 370.732 -29.9272 374.605C-28.3796 369.899 -26.8319 365.194 -25.2993 360.499C-19.4038 358.905 -13.4933 357.3 -7.59783 355.706C-6.62361 355.435 -5.64267 355.182 -4.66844 354.911C-4.6717 354.139 -4.67495 353.368 -4.68235 352.61C-6.12869 353.005 -7.5776 353.368 -9.00894 353.752C-14.1629 355.146 -19.306 356.544 -24.46 357.938C-23.1562 353.961 -21.8524 349.983 -20.5486 346.006C-15.3662 343.441 -10.1389 341.172 -4.88022 339.165C-4.89018 338.375 -4.91515 337.597 -4.9334 336.837C-9.8694 338.706 -14.7548 340.811 -19.6197 343.173C-18.0886 338.526 -16.5726 333.889 -15.0415 329.241C-11.8047 327.785 -8.54157 326.525 -5.25892 325.444C-5.28389 324.666 -5.30886 323.888 -5.34211 323.138C-8.29536 324.099 -11.2249 325.224 -14.1333 326.481C-13.2127 323.677 -12.2921 320.873 -11.3715 318.07C-9.47042 317.199 -7.55852 316.332 -5.65334 315.447C-5.68502 314.651 -5.72499 313.883 -5.75824 313.134C-7.32158 313.855 -8.89164 314.559 -10.455 315.28C-9.0782 311.089 -7.70555 306.913 -6.32877 302.721C-6.58246 299.074 -6.75009 297.104 -6.75009 297.104C-6.75009 297.104 -7.99576 298.488 -10.2404 301.095C-11.7756 305.757 -13.3 310.422 -14.8394 315.099C-15.2855 312.825 -15.8775 310.647 -16.5745 308.549C-17.0582 309.125 -17.5569 309.714 -18.0681 310.345C-17.1987 313.078 -16.5393 315.968 -16.1074 318.993C-17.1823 322.253 -18.2422 325.502 -19.3172 328.763C-20.1883 324.346 -21.3729 320.117 -22.8508 316.13C-23.3278 316.725 -23.8156 317.316 -24.3185 317.919C-22.7833 322.159 -21.5865 326.675 -20.7697 331.405C-20.7182 331.72 -20.5792 331.935 -20.4154 332.063C-22.3793 338.058 -24.3541 344.05 -26.3181 350.045C-28.2535 342.71 -30.4056 335.514 -32.7703 328.442C-33.2514 329.051 -33.7475 329.672 -34.237 330.31C-31.7277 337.866 -29.4611 345.568 -27.4344 353.45C-29.2026 358.844 -30.9709 364.237 -32.7458 369.613C-35.5455 359.61 -38.5469 349.734 -41.7391 339.989C-42.2285 340.627 -42.7029 341.254 -43.1965 341.907C-39.8514 352.107 -36.7272 362.46 -33.8347 372.964C-36.0094 379.571 -38.1732 386.182 -40.3438 392.775C-43.6738 379.307 -47.4399 366.085 -51.6093 353.118C-52.092 353.774 -52.5747 354.43 -53.0574 355.086C-48.7543 368.534 -44.8954 382.256 -41.4958 396.263C-42.9332 400.625 -44.3555 404.975 -45.7887 409.322C-51.4625 395.758 -57.1404 382.208 -62.8141 368.643C-63.271 369.291 -63.7278 369.939 -64.1888 370.601C-58.3725 384.492 -52.5671 398.38 -46.7466 412.256C-49.5168 420.697 -52.2911 429.151 -55.0612 437.592C-59.8399 418.51 -65.4948 399.933 -71.973 381.925C-72.4381 382.602 -72.8965 383.297 -73.3658 383.988C-66.7673 402.442 -61.0331 421.483 -56.1983 441.069C-58.7437 448.807 -61.2782 456.548 -63.8195 464.271C-71.6138 444.636 -79.4082 425.002 -87.2134 405.365C-87.6542 406.08 -88.0909 406.782 -88.5318 407.497C-80.6192 427.419 -72.6957 447.344 -64.7831 467.266C-65.756 470.211 -66.7181 473.16 -67.691 476.105C-68.872 479.695 -70.0531 483.285 -71.2192 486.863C-80.1409 465.645 -89.056 444.444 -97.9777 423.225C-98.401 423.962 -98.8201 424.684 -99.2434 425.421C-90.2235 446.874 -81.2036 468.327 -72.177 489.797C-73.9976 495.333 -75.8072 500.871 -77.6277 506.406C-88.523 486.146 -99.4249 465.868 -110.32 445.608C-110.711 446.355 -111.102 447.102 -111.481 447.851C-100.555 468.168 -89.629 488.485 -78.7028 508.801C-78.6408 508.914 -78.5705 508.999 -78.4919 509.054C-81.0871 516.965 -83.6822 524.877 -86.2882 532.785C-97.5593 510.334 -108.835 487.899 -120.106 465.448C-120.476 466.248 -120.847 467.048 -121.207 467.851C-109.873 490.415 -98.5336 512.996 -87.2005 535.559C-89.1437 541.482 -91.087 547.405 -93.0344 553.342C-106.003 533.523 -118.964 513.721 -131.932 493.902C-132.242 494.737 -132.545 495.588 -132.844 496.426C-119.858 516.266 -106.872 536.106 -93.897 555.943C-95.9629 562.253 -98.0398 568.56 -100.106 574.87C-114.377 557.912 -127.771 539.788 -140.238 520.609C-140.486 521.556 -140.723 522.507 -140.955 523.443C-128.509 542.49 -115.143 560.464 -100.912 577.315C-104.269 587.559 -107.633 597.786 -110.991 608.03C-123.798 592.884 -135.944 576.869 -147.401 560.056C-147.517 561.201 -147.613 562.32 -147.709 563.439C-136.471 579.823 -124.564 595.436 -112.029 610.216C-111.948 610.303 -111.87 610.358 -111.78 610.417C-113.19 614.724 -114.611 619.028 -116.021 623.335C-126.731 611.908 -137.426 600.469 -148.136 589.042C-148.074 590.225 -148.003 591.379 -147.91 592.54C-137.547 603.61 -127.183 614.681 -116.808 625.754C-118.205 630.018 -119.603 634.281 -121.011 638.541C-119.721 639.106 -118.407 639.583 -117.067 639.973C-116.68 638.785 -116.297 637.612 -115.899 636.427C-102.723 633.8 -89.5579 631.17 -76.3821 628.544C-75.375 627.622 -74.3772 626.651 -73.4036 625.641C-87.2936 628.412 -101.194 631.181 -115.084 633.953C-113.83 630.149 -112.583 626.328 -111.329 622.524C-94.8932 619.061 -78.4575 615.599 -62.0152 612.154C-61.3452 611.256 -60.6711 610.343 -60.0037 609.413C-76.8406 612.959 -93.6775 616.504 -110.51 620.035C-108.571 614.127 -106.632 608.219 -104.693 602.311C-86.0407 598.812 -67.3844 595.3 -48.7322 591.801C-48.2541 590.955 -47.7718 590.095 -47.2854 589.22C-66.1511 592.764 -85.0169 596.307 -103.883 599.851C-102.196 594.7 -100.494 589.538 -98.8068 584.387C-98.7653 584.242 -98.7131 584.101 -98.6608 583.959C-78.8182 578.982 -58.9312 575.292 -39.0775 572.913C-38.7027 572.098 -38.3389 571.281 -37.9642 570.466C-57.9048 572.819 -77.8894 576.479 -97.823 581.445C-97.6107 580.786 -97.3834 580.115 -97.1711 579.456C-97.0971 579.321 -97.0557 579.177 -97.0401 579.04C-95.626 574.718 -94.2011 570.4 -92.7871 566.079C-71.6347 558.793 -50.3714 552.768 -29.0528 548.033C-28.7649 547.192 -28.477 546.352 -28.1892 545.511C-49.5196 550.163 -70.7856 556.156 -91.9363 563.395Z" fill="#97C9CE"/>
<path d="M14.7703 354.199C15.0233 354.165 15.2755 354.105 15.5154 354.059C15.5531 354.045 15.5916 354.056 15.6293 354.042C15.8692 353.996 16.1091 353.949 16.3359 353.89C16.3613 353.889 16.3989 353.875 16.4243 353.874C16.6765 353.815 16.9164 353.768 17.1555 353.696C17.2063 353.694 17.2562 353.667 17.307 353.665C17.546 353.593 17.786 353.547 18.025 353.475C18.0627 353.461 18.1135 353.459 18.1511 353.445C18.3902 353.373 18.6292 353.301 18.8683 353.229L18.8805 353.216C19.1196 353.144 19.3709 353.058 19.5969 352.974C19.6345 352.96 19.6722 352.946 19.7098 352.932C19.9358 352.848 20.1617 352.763 20.3876 352.679C20.4253 352.665 20.4629 352.651 20.5128 352.623C20.7388 352.539 20.977 352.442 21.2029 352.357C21.2152 352.344 21.2283 352.356 21.2406 352.343C21.4665 352.259 21.6793 352.162 21.8921 352.065C21.9298 352.051 21.942 352.038 21.9797 352.024C22.1925 351.927 22.4053 351.831 22.6304 351.721C22.668 351.707 22.7057 351.693 22.7433 351.679C22.9561 351.582 23.1812 351.472 23.3809 351.363C23.3932 351.35 23.4185 351.349 23.4431 351.323C23.6559 351.226 23.8678 351.104 24.0675 350.995C24.0798 350.982 24.0929 350.994 24.1051 350.981C24.3048 350.872 24.5168 350.749 24.7164 350.64C24.7541 350.626 24.7786 350.6 24.804 350.599C25.0037 350.49 25.1902 350.369 25.3899 350.26C25.4022 350.247 25.4398 350.233 25.4521 350.219C25.8506 349.976 26.236 349.72 26.6213 349.464C26.6336 349.451 26.6713 349.437 26.6835 349.424C26.8701 349.302 27.0435 349.169 27.2169 349.035C27.2292 349.022 27.2537 348.995 27.2791 348.995C27.6513 348.726 27.9851 348.447 28.3188 348.167C28.331 348.154 28.331 348.154 28.3433 348.141C28.5036 347.995 28.6648 347.874 28.8251 347.728C28.8373 347.715 28.8496 347.702 28.8619 347.689C29.0222 347.543 29.1702 347.41 29.3305 347.264C29.6257 346.973 29.9209 346.682 30.1907 346.391C30.203 346.378 30.2152 346.365 30.2152 346.365C30.3501 346.22 30.4719 346.062 30.5945 345.931L30.6068 345.917C30.8635 345.615 31.0825 345.326 31.3007 345.012L31.313 344.999C31.4225 344.855 31.5189 344.698 31.603 344.555L31.6153 344.542C31.8922 344.085 32.1314 343.643 32.319 343.176L32.3313 343.163C32.5066 342.71 32.6443 342.271 32.7312 341.834L32.7434 341.821C32.7768 341.679 32.7847 341.538 32.8049 341.384C32.8331 341.089 32.8367 340.821 32.8141 340.528C32.7967 340.388 32.7924 340.261 32.7495 340.121C32.7495 340.121 32.7495 340.121 32.7364 340.109C32.395 338.281 30.8565 336.763 27.8145 335.883C13.8998 331.836 -1.11829 342.147 -6.39287 346.287C-5.49322 343.574 -4.64433 340.862 -3.82171 338.126C-3.26217 336.255 -2.72805 334.384 -2.1939 332.514L-1.45626 329.895C0.469902 322.957 2.31902 315.996 4.33533 309.093C4.42636 309.154 4.51739 309.215 4.59616 309.289C4.84384 309.472 5.07839 309.643 5.32608 309.826C5.46962 309.936 5.61229 310.021 5.75582 310.131C5.97725 310.289 6.19783 310.422 6.41926 310.581C6.57506 310.677 6.73085 310.774 6.88665 310.871C7.10722 311.004 7.31552 311.15 7.52296 311.271C7.67876 311.368 7.83456 311.465 8.00263 311.548C8.21006 311.669 8.43063 311.802 8.65034 311.91C8.80614 312.006 8.96108 312.078 9.12914 312.161C9.34884 312.269 9.5563 312.39 9.776 312.497C9.93093 312.568 10.099 312.652 10.2417 312.737C10.4614 312.844 10.6811 312.952 10.9131 313.046C11.068 313.117 11.2229 313.188 11.3647 313.248C11.5967 313.342 11.8287 313.436 12.0738 313.543C12.2156 313.602 12.3574 313.661 12.4992 313.72C12.7697 313.825 13.027 313.919 13.2975 314.025C13.4131 314.059 13.5164 314.107 13.6197 314.154C13.9926 314.282 14.3655 314.41 14.7507 314.524C14.7761 314.523 14.8023 314.548 14.8277 314.547C15.1744 314.65 15.5211 314.753 15.8677 314.857C15.9833 314.891 16.1111 314.912 16.2266 314.946C16.4831 315.014 16.7396 315.082 16.983 315.138C17.124 315.171 17.2649 315.205 17.4059 315.238C17.6361 315.282 17.8672 315.35 18.0974 315.394C18.2384 315.427 18.3916 315.447 18.5448 315.468C18.7751 315.511 18.9922 315.542 19.2224 315.585C19.3756 315.605 19.5288 315.626 19.6698 315.659C19.8869 315.69 20.104 315.721 20.3211 315.752C20.4744 315.772 20.6276 315.793 20.7808 315.813C20.9979 315.844 21.2273 315.861 21.4313 315.88C21.5845 315.9 21.7246 315.908 21.8778 315.929C22.1071 315.946 22.3234 315.952 22.5528 315.969C22.6929 315.977 22.833 315.985 22.973 315.993C23.2024 316.011 23.4441 316.016 23.6857 316.02C23.8127 316.016 23.9274 316.025 24.0674 316.033C24.3345 316.036 24.6138 316.027 24.8808 316.03C24.957 316.028 25.0463 316.038 25.1347 316.022C25.4902 316.01 25.8457 315.998 26.2012 315.985C26.2519 315.984 26.2896 315.97 26.3281 315.981C26.6328 315.971 26.9366 315.935 27.2413 315.924C27.3552 315.908 27.469 315.891 27.5837 315.9C27.8245 315.879 28.0399 315.859 28.2675 315.825C28.4067 315.808 28.5206 315.791 28.6598 315.774C28.8752 315.754 29.0775 315.721 29.2797 315.689C29.4189 315.671 29.5582 315.654 29.6843 315.624C29.8865 315.591 30.0888 315.559 30.2657 315.527C30.4049 315.51 30.5432 315.467 30.6824 315.449C30.8716 315.404 31.0616 315.385 31.2507 315.34C31.39 315.323 31.5283 315.28 31.6675 315.262C31.8567 315.217 32.0458 315.173 32.2227 315.141C32.3488 315.111 32.5003 315.08 32.6263 315.051C32.8155 315.006 32.9915 314.949 33.1806 314.904C33.3067 314.874 33.4451 314.831 33.5712 314.801C33.7603 314.756 33.9486 314.686 34.1377 314.641C34.2507 314.599 34.3768 314.569 34.4898 314.527C34.7034 314.456 34.9048 314.398 35.1185 314.327C35.2192 314.298 35.2945 314.27 35.3952 314.241C35.6842 314.141 35.9732 314.042 36.2613 313.917C36.3489 313.876 36.4496 313.847 36.5371 313.806C36.7254 313.735 36.926 313.652 37.1142 313.582C37.2395 313.526 37.3524 313.484 37.4777 313.429C37.6405 313.359 37.7912 313.303 37.9409 313.221C38.0662 313.166 38.1914 313.111 38.3166 313.055C38.4541 312.987 38.5916 312.918 38.7422 312.862C38.8675 312.806 38.9918 312.726 39.1171 312.67C39.2546 312.602 39.3798 312.546 39.5041 312.465C39.6294 312.41 39.7537 312.329 39.879 312.274C39.9911 312.206 40.1286 312.137 40.2407 312.07C40.365 311.989 40.4903 311.934 40.6146 311.853C40.7267 311.785 40.8388 311.717 40.9632 311.636C41.0876 311.555 41.1997 311.488 41.324 311.407C41.4362 311.339 41.5351 311.259 41.6472 311.191C41.7716 311.111 41.8837 311.043 41.995 310.95C42.0939 310.87 42.1937 310.815 42.2805 310.748C42.4048 310.667 42.5161 310.574 42.6282 310.506C42.7149 310.44 42.7893 310.386 42.8761 310.319C43.3096 309.985 43.73 309.639 44.112 309.281C44.1733 309.215 44.2355 309.174 44.2968 309.108C44.408 309.015 44.5061 308.909 44.6043 308.804C44.6656 308.738 44.7269 308.672 44.8013 308.618C44.8995 308.513 44.9853 308.42 45.0834 308.315C45.1447 308.249 45.2061 308.183 45.2674 308.117C45.3532 308.025 45.4513 307.919 45.5241 307.814C45.5854 307.749 45.6344 307.696 45.6826 307.617C45.7554 307.513 45.8412 307.42 45.9139 307.316C45.963 307.263 46.0112 307.185 46.0471 307.12C46.1198 307.015 46.1926 306.91 46.2653 306.806C46.3012 306.74 46.3503 306.688 46.3862 306.623C46.4589 306.518 46.5185 306.401 46.5912 306.296C46.6272 306.231 46.6508 306.179 46.6868 306.114C46.7464 305.997 46.8191 305.893 46.8787 305.776C46.9023 305.724 46.9137 305.685 46.9374 305.633C46.997 305.516 47.0566 305.399 47.1031 305.27L47.1153 305.256C47.3161 304.803 47.4406 304.351 47.5144 303.902C47.5135 303.876 47.5249 303.837 47.5363 303.799C47.5574 303.67 47.5662 303.555 47.575 303.44C47.5733 303.389 47.5847 303.35 47.5952 303.286C47.604 303.17 47.6006 303.068 47.6094 302.953C47.6077 302.902 47.606 302.851 47.6165 302.787C47.613 302.685 47.6096 302.583 47.593 302.468C47.5913 302.417 47.5764 302.354 47.5747 302.303C47.5713 302.201 47.5424 302.1 47.5258 301.985C47.511 301.922 47.5093 301.871 47.4821 301.821C47.4533 301.719 47.4245 301.618 47.3956 301.517C47.3808 301.454 47.3536 301.403 47.3397 301.366C47.3108 301.264 47.2566 301.164 47.2277 301.063C47.2006 301.013 47.1735 300.962 47.1595 300.925C47.1053 300.824 47.0633 300.711 47.0091 300.61C46.9951 300.573 46.9557 300.536 46.9417 300.498C46.3224 299.471 45.2862 298.523 43.7351 297.759C31.1287 291.432 11.0616 303.154 4.99039 307.04C6.41901 302.303 7.95006 297.588 9.6737 292.931L9.74384 292.75C9.80258 292.607 9.84904 292.478 9.89465 292.323C9.89465 292.323 9.89465 292.323 9.90692 292.31L10.9353 289.643C13.2426 283.829 15.9123 278.207 18.9444 272.777C19.6166 273.111 20.5086 273.553 21.6054 274.04C21.7218 274.1 21.8374 274.134 21.9538 274.194C22.4308 274.395 22.9473 274.633 23.4883 274.844C23.6301 274.903 23.7588 274.95 23.9006 275.009C24.2096 275.126 24.5317 275.255 24.8539 275.385C25.0858 275.479 25.3178 275.574 25.562 275.655C25.7424 275.725 25.9227 275.796 26.1284 275.865C26.7464 276.1 27.4021 276.32 28.0831 276.539C28.4175 276.656 28.7642 276.759 29.1109 276.862C33.4398 278.209 38.5734 279.298 43.7697 279.235C44.0237 279.227 44.2653 279.231 44.5192 279.223C44.5954 279.22 44.6716 279.217 44.7477 279.215C44.9377 279.196 45.1286 279.202 45.3186 279.183C45.3948 279.18 45.4456 279.178 45.5217 279.176C45.7625 279.155 46.0164 279.146 46.2572 279.125C46.308 279.123 46.3334 279.122 46.3842 279.121C46.5873 279.114 46.7896 279.081 46.9796 279.062C47.0557 279.059 47.1188 279.044 47.195 279.042C47.385 279.023 47.575 279.003 47.7518 278.972C47.8026 278.97 47.8534 278.968 47.8911 278.954C48.1187 278.921 48.3464 278.888 48.574 278.854C48.6248 278.852 48.6879 278.838 48.7255 278.823C48.9024 278.792 49.0793 278.76 49.2561 278.729C49.3192 278.714 49.3822 278.699 49.4453 278.684C49.6475 278.651 49.8498 278.619 50.039 278.574C50.0643 278.573 50.0766 278.56 50.0897 278.572C50.3043 278.527 50.5188 278.481 50.7333 278.436C50.7964 278.421 50.834 278.407 50.8848 278.405C51.0486 278.361 51.2123 278.317 51.3638 278.286C51.4146 278.285 51.4645 278.257 51.5153 278.256C51.7167 278.198 51.9181 278.14 52.1195 278.082C52.1195 278.082 52.1317 278.068 52.1449 278.081C52.334 278.036 52.5223 277.966 52.6983 277.909C52.736 277.895 52.799 277.88 52.8367 277.866C52.9873 277.809 53.151 277.765 53.3016 277.709C53.3393 277.695 53.3647 277.694 53.4024 277.68C53.5906 277.61 53.7666 277.553 53.9418 277.47C53.9672 277.469 53.9794 277.456 53.9917 277.443C54.1423 277.387 54.3052 277.317 54.4427 277.249C54.4804 277.235 54.518 277.221 54.5557 277.206C54.7186 277.137 54.8815 277.068 55.0312 276.986L55.0435 276.973C55.2064 276.903 55.3684 276.808 55.5181 276.727C55.5304 276.713 55.5558 276.712 55.5803 276.686C55.7178 276.618 55.8422 276.537 55.9797 276.468C55.9919 276.455 56.0296 276.441 56.0419 276.428C56.3283 276.252 56.6024 276.089 56.8502 275.902C56.8625 275.889 56.8748 275.875 56.9002 275.875C57.0114 275.781 57.1235 275.714 57.2347 275.62C57.247 275.607 57.247 275.607 57.2593 275.594C57.494 275.394 57.7034 275.196 57.8873 274.998C57.8996 274.985 57.9119 274.971 57.9241 274.958C58.1204 274.747 58.2789 274.55 58.4366 274.328C58.5094 274.223 58.569 274.106 58.6294 274.014C58.6417 274.001 58.6417 274.001 58.6539 273.988C58.774 273.78 58.8678 273.546 58.9362 273.314L58.9485 273.301C58.9827 273.185 59.0046 273.082 59.0388 272.966C59.0388 272.966 59.0511 272.953 59.038 272.94C59.081 272.709 59.0986 272.478 59.1031 272.235L59.1022 272.21C59.0244 270.284 57.1868 268.188 53.001 266.185C43.0414 261.454 26.3582 268.001 20.073 270.822C22.8956 265.961 25.9781 261.27 29.3722 256.772L31.3811 254.162C32.0513 253.309 32.7347 252.468 33.418 251.627C36.1899 248.275 39.1193 245.071 42.1931 242.002C42.3752 242.124 42.5826 242.245 42.8163 242.39C42.9336 242.475 43.0631 242.547 43.1927 242.62C43.4526 242.79 43.738 242.959 44.0496 243.152C44.9844 243.734 46.1257 244.41 47.4877 245.219C47.9411 245.472 48.4085 245.763 48.9135 246.039C49.1726 246.184 49.4317 246.328 49.6785 246.486C52.2965 247.98 55.5202 249.723 59.3104 251.675C59.4916 251.771 59.6728 251.867 59.8531 251.938C59.9178 251.974 59.9695 251.998 60.0343 252.034C60.1507 252.094 60.2794 252.14 60.4089 252.213C60.4737 252.249 60.5507 252.272 60.6155 252.308C60.7319 252.368 60.8475 252.402 60.9639 252.462C61.0409 252.485 61.1188 252.533 61.1958 252.556C61.2991 252.604 61.4278 252.65 61.5311 252.698C61.6081 252.721 61.686 252.769 61.7631 252.792C61.8664 252.84 61.9819 252.874 62.1106 252.921C62.1876 252.944 62.2778 252.979 62.3426 253.015C62.4581 253.049 62.5614 253.097 62.6901 253.144C62.7671 253.167 62.8442 253.19 62.9089 253.226C63.0376 253.272 63.1532 253.307 63.2687 253.341C63.3458 253.364 63.3974 253.388 63.4745 253.411C63.6285 253.457 63.7826 253.502 63.9367 253.548C63.9752 253.56 64.0137 253.571 64.0522 253.583C64.2448 253.64 64.4374 253.697 64.63 253.755C64.6816 253.778 64.7455 253.789 64.7963 253.787C64.9373 253.821 65.0782 253.854 65.2069 253.901C65.2839 253.924 65.3479 253.934 65.4249 253.957C65.5404 253.992 65.6683 254.013 65.7838 254.047C65.8608 254.07 65.9501 254.08 66.0272 254.103C66.1427 254.137 66.2574 254.146 66.3599 254.168C66.4369 254.191 66.5262 254.201 66.6155 254.21C66.7179 254.232 66.8457 254.254 66.9482 254.276C67.0375 254.285 67.1145 254.308 67.2038 254.318C67.3062 254.34 67.4209 254.349 67.5365 254.383C67.6258 254.393 67.7028 254.416 67.7921 254.426C67.9068 254.435 68.0092 254.457 68.1371 254.478C68.2264 254.488 68.2903 254.498 68.3796 254.508C68.5074 254.529 68.6221 254.538 68.7499 254.559C68.8138 254.57 68.89 254.567 68.9539 254.578C69.1325 254.597 69.3365 254.616 69.5151 254.635C69.579 254.646 69.6298 254.644 69.6937 254.655C69.8215 254.676 69.9484 254.671 70.0763 254.693C70.1656 254.702 70.2417 254.7 70.331 254.709C70.4457 254.718 70.5473 254.715 70.6497 254.737C70.739 254.747 70.8152 254.744 70.9168 254.741C71.0183 254.737 71.1076 254.747 71.2092 254.743C71.2985 254.753 71.3869 254.737 71.4762 254.747C71.5778 254.744 71.6671 254.753 71.7687 254.75C71.858 254.76 71.9464 254.744 72.0357 254.753C72.1373 254.75 72.2134 254.747 72.315 254.744C72.4166 254.74 72.4927 254.738 72.5943 254.734C72.6836 254.744 72.772 254.728 72.8736 254.725C72.9752 254.721 73.0513 254.719 73.1529 254.715C73.2291 254.713 73.3306 254.709 73.4068 254.707C73.5084 254.703 73.5968 254.687 73.6861 254.697C73.7623 254.694 73.8507 254.679 73.9269 254.676C74.1169 254.657 74.32 254.65 74.5223 254.617C74.5853 254.603 74.6493 254.613 74.7123 254.598C74.8139 254.595 74.9146 254.566 75.0161 254.562C75.0923 254.56 75.1554 254.545 75.2315 254.542C75.32 254.526 75.4338 254.51 75.5222 254.494C75.5853 254.479 75.6615 254.476 75.7245 254.461C75.8129 254.446 75.9268 254.429 76.0152 254.413C76.0783 254.398 76.1544 254.396 76.2175 254.381C76.3059 254.365 76.4066 254.336 76.5082 254.332C76.5712 254.318 76.6343 254.303 76.6973 254.288C76.798 254.259 76.8865 254.243 76.9872 254.214C77.0502 254.199 77.1132 254.184 77.1763 254.169C77.277 254.14 77.3654 254.124 77.4661 254.095C77.5169 254.094 77.5668 254.066 77.6176 254.065C77.7183 254.036 77.819 254.007 77.9197 253.978C77.9451 253.977 77.9828 253.963 77.995 253.95C78.3724 253.834 78.749 253.694 79.1133 253.566C79.1387 253.566 79.1509 253.552 79.1763 253.552C79.2893 253.509 79.3769 253.468 79.4767 253.414C79.5144 253.4 79.552 253.385 79.5897 253.371C79.6773 253.33 79.7771 253.276 79.8778 253.247C79.9155 253.233 79.9531 253.218 80.003 253.191C80.0906 253.15 80.1782 253.109 80.278 253.054C80.3157 253.04 80.3533 253.026 80.3901 252.986C80.4777 252.945 80.5653 252.904 80.652 252.837C80.6896 252.823 80.7142 252.796 80.7518 252.782C80.8394 252.741 80.9261 252.674 81.0137 252.633C81.0382 252.607 81.0636 252.606 81.0881 252.579C81.188 252.525 81.2747 252.458 81.3491 252.404C81.3614 252.391 81.3614 252.391 81.3737 252.378C81.7836 252.096 82.1549 251.802 82.4869 251.471C82.4992 251.458 82.5115 251.445 82.5115 251.445C82.585 251.366 82.6464 251.3 82.7199 251.221C82.7322 251.207 82.7567 251.181 82.769 251.168C82.8303 251.102 82.9039 251.023 82.9652 250.957C82.9898 250.93 83.002 250.917 83.0265 250.891C83.0879 250.825 83.1361 250.747 83.2096 250.667C83.2342 250.641 83.2464 250.628 83.2578 250.589C83.306 250.511 83.3674 250.445 83.4278 250.353C83.4401 250.34 83.4646 250.314 83.4637 250.288C83.5119 250.21 83.5724 250.119 83.6206 250.04C83.6329 250.027 83.6329 250.027 83.6451 250.014C83.873 249.61 84.0623 249.195 84.2 248.756C84.2219 248.653 84.257 248.562 84.2789 248.459C84.2781 248.434 84.2903 248.421 84.2895 248.395C84.3114 248.292 84.3211 248.202 84.3561 248.112C84.3553 248.086 84.3667 248.048 84.3658 248.022C84.3755 247.932 84.3974 247.829 84.4071 247.74C84.4062 247.714 84.4176 247.675 84.4168 247.65C84.4265 247.56 84.4353 247.445 84.4449 247.355C84.4441 247.33 84.4555 247.291 84.4546 247.265C84.4512 247.163 84.4608 247.074 84.4697 246.958C84.4688 246.933 84.4679 246.907 84.4671 246.882C84.4554 245.784 84.1732 244.58 83.5951 243.271C78.1483 231.041 52.7359 237.67 44.0308 240.343C49.0895 235.457 54.5166 230.941 60.264 226.874C60.2894 226.873 60.2894 226.873 60.3148 226.872L62.4623 225.356C65.879 223.029 69.4024 220.852 73.0202 218.838C73.0588 218.85 73.0973 218.861 73.1358 218.872C73.4054 218.953 73.6497 219.034 73.9062 219.102C73.9447 219.113 73.9701 219.112 74.0086 219.124C74.2651 219.192 74.5216 219.259 74.7903 219.314C74.8157 219.313 74.8543 219.325 74.8674 219.337C75.1362 219.392 75.4049 219.446 75.6737 219.501C75.7245 219.499 75.7761 219.523 75.8269 219.521C76.0825 219.564 76.3513 219.618 76.6192 219.648C76.67 219.646 76.7085 219.657 76.7593 219.656C77.0403 219.697 77.3082 219.726 77.6015 219.755L77.6269 219.754C77.8948 219.783 78.175 219.799 78.4551 219.815C78.5059 219.813 78.5444 219.825 78.5952 219.823C78.8754 219.839 79.1424 219.843 79.4094 219.846C79.4602 219.844 79.511 219.843 79.5749 219.853C79.842 219.857 80.1221 219.873 80.4014 219.863C80.4399 219.875 80.4776 219.861 80.5284 219.859C80.7954 219.863 81.0747 219.853 81.3409 219.831C81.3663 219.83 81.3917 219.83 81.4171 219.829C81.6964 219.819 81.9879 219.796 82.2541 219.775C82.3049 219.773 82.3557 219.771 82.4065 219.769C82.6726 219.748 82.9511 219.712 83.2172 219.691C83.268 219.689 83.3188 219.687 83.3696 219.685C83.648 219.65 83.9265 219.615 84.2049 219.58C84.2303 219.579 84.2426 219.566 84.268 219.565C84.5464 219.53 84.8117 219.483 85.0902 219.448C85.1278 219.434 85.1786 219.432 85.204 219.431C85.4693 219.384 85.76 219.335 86.0253 219.288C86.0761 219.286 86.1391 219.271 86.1768 219.257C86.4544 219.197 86.7197 219.149 86.9973 219.089C87.0349 219.075 87.0857 219.073 87.1234 219.059C87.4009 218.998 87.6654 218.926 87.943 218.865C87.9552 218.852 87.9683 218.864 87.9806 218.851C88.2705 218.777 88.5349 218.704 88.8247 218.63C88.8624 218.616 88.9254 218.601 88.9631 218.587C89.2276 218.515 89.5043 218.428 89.7687 218.356C89.8186 218.328 89.8694 218.327 89.9193 218.299C90.196 218.213 90.4728 218.127 90.7364 218.029C90.7617 218.028 90.7863 218.001 90.8117 218.001C91.0752 217.902 91.3397 217.829 91.6033 217.731C91.6409 217.717 91.6786 217.703 91.704 217.702C91.9676 217.603 92.2312 217.505 92.4948 217.407C92.5447 217.379 92.5954 217.378 92.6454 217.35C92.909 217.252 93.1594 217.141 93.423 217.043C93.4607 217.029 93.5106 217.001 93.5482 216.987C93.8241 216.876 94.0745 216.765 94.3504 216.653C94.6131 216.529 94.889 216.418 95.1517 216.294C95.1894 216.28 95.2393 216.253 95.2769 216.239C95.5274 216.128 95.777 215.992 96.0274 215.881C96.0774 215.854 96.115 215.84 96.1649 215.812C96.4145 215.676 96.665 215.565 96.9146 215.429C96.9522 215.415 96.9645 215.402 97.0022 215.388C97.2395 215.265 97.4891 215.128 97.7264 215.005C97.7387 214.992 97.7763 214.978 97.7886 214.965C98.0382 214.829 98.2755 214.705 98.512 214.557C98.5619 214.53 98.5996 214.516 98.6495 214.488C98.8737 214.353 99.1233 214.217 99.3475 214.081C99.3852 214.067 99.422 214.028 99.4596 214.014C99.6961 213.865 99.9326 213.716 100.169 213.568L100.181 213.555C100.418 213.406 100.654 213.257 100.865 213.11C100.903 213.096 100.927 213.069 100.965 213.055C101.176 212.908 101.4 212.772 101.624 212.611C101.674 212.584 101.698 212.558 101.748 212.53C101.959 212.383 102.183 212.222 102.394 212.074C102.418 212.048 102.444 212.047 102.468 212.02C102.679 211.873 102.877 211.713 103.088 211.565C103.1 211.552 103.113 211.538 103.138 211.538C103.336 211.378 103.547 211.23 103.745 211.07C103.77 211.043 103.82 211.016 103.844 210.99C104.042 210.83 104.228 210.683 104.426 210.523C104.45 210.496 104.488 210.482 104.525 210.443C104.723 210.283 104.907 210.11 105.105 209.95L105.118 209.937C105.302 209.765 105.488 209.618 105.673 209.446C105.698 209.419 105.71 209.406 105.734 209.38C105.907 209.22 106.079 209.061 106.252 208.902C106.277 208.876 106.301 208.849 106.338 208.81C106.51 208.65 106.67 208.479 106.83 208.333C106.855 208.307 106.867 208.293 106.891 208.267C107.051 208.096 107.223 207.936 107.358 207.766L107.37 207.753C107.529 207.581 107.676 207.423 107.81 207.252C107.835 207.226 107.859 207.199 107.872 207.186C108.019 207.028 108.153 206.857 108.275 206.7C108.299 206.673 108.312 206.66 108.336 206.634C108.47 206.463 108.604 206.292 108.726 206.135C108.738 206.122 108.738 206.122 108.75 206.109C108.872 205.951 109.006 205.781 109.115 205.611C109.127 205.598 109.139 205.584 109.152 205.571C109.273 205.414 109.382 205.244 109.479 205.087C109.503 205.061 109.502 205.036 109.527 205.009C109.623 204.853 109.732 204.683 109.828 204.526C109.84 204.513 109.84 204.487 109.864 204.461C110.056 204.122 110.223 203.81 110.378 203.486C110.39 203.472 110.389 203.447 110.401 203.434C110.472 203.278 110.543 203.122 110.602 202.98C110.614 202.966 110.613 202.941 110.638 202.915C110.709 202.759 110.755 202.604 110.8 202.449C110.8 202.449 110.812 202.436 110.799 202.424C110.845 202.269 110.891 202.114 110.924 201.972L110.923 201.947C110.956 201.805 110.99 201.664 111.01 201.51C111.009 201.484 111.021 201.471 111.02 201.445C110.909 201.143 110.93 201.014 110.938 200.873C110.937 200.848 110.937 200.848 110.936 200.822C110.952 200.541 110.954 200.247 110.933 199.979C110.932 199.954 110.932 199.954 110.931 199.928C110.914 199.788 110.897 199.674 110.867 199.547C110.866 199.522 110.853 199.509 110.852 199.484C110.823 199.357 110.793 199.23 110.738 199.105C110.738 199.105 110.725 199.092 110.724 199.067C110.682 198.953 110.627 198.827 110.572 198.701L110.559 198.689C110.504 198.563 110.436 198.451 110.369 198.338C110.356 198.326 110.355 198.3 110.342 198.288C110.274 198.175 110.195 198.076 110.102 197.964C110.089 197.952 110.076 197.939 110.063 197.927C109.996 197.84 109.903 197.728 109.798 197.629C108.628 196.481 106.556 195.722 103.371 195.498C84.7989 194.293 75.1031 210.145 72.1864 215.98C68.4556 218.036 64.8323 220.267 61.3159 222.648L59.3785 223.992C53.4315 228.168 47.7924 232.806 42.5349 237.826C45.9965 229.686 53.42 209.033 44.0734 200.628C41.5959 198.4 39.3715 197.646 37.4627 197.954C37.4504 197.967 37.4373 197.954 37.425 197.968C36.869 198.063 36.3287 198.248 35.8295 198.52L35.8173 198.534C35.3181 198.806 34.8346 199.167 34.3913 199.591L34.3791 199.605C33.9358 200.028 33.5083 200.541 33.1333 201.103C33.121 201.116 33.121 201.116 33.1088 201.13C33.0361 201.234 32.9511 201.352 32.8915 201.469C32.6023 201.939 32.3271 202.447 32.0528 202.98C32.0406 202.993 32.0292 203.032 32.0169 203.045C31.9573 203.162 31.9108 203.291 31.839 203.421C31.8267 203.434 31.8276 203.46 31.8153 203.473C31.6383 203.875 31.4743 204.29 31.3112 204.729C31.299 204.743 31.2998 204.768 31.2876 204.781C31.2411 204.911 31.1946 205.04 31.1482 205.169C31.1368 205.208 31.1131 205.26 31.1017 205.299C31.0552 205.428 31.021 205.544 30.9877 205.686C30.9763 205.724 30.9649 205.763 30.9412 205.815C30.8158 206.241 30.6904 206.667 30.5904 207.092C30.5667 207.144 30.5684 207.195 30.557 207.233C30.5228 207.349 30.5018 207.478 30.4807 207.606C30.4701 207.671 30.4473 207.748 30.4368 207.812C30.4157 207.941 30.3815 208.057 30.3604 208.185C30.3376 208.263 30.3271 208.327 30.3174 208.417C30.2963 208.545 30.2621 208.661 30.2533 208.777C30.2428 208.841 30.2322 208.905 30.2217 208.969C30.1787 209.201 30.1357 209.432 30.118 209.663C30.1084 209.752 30.0987 209.842 30.0759 209.919C30.0671 210.035 30.0451 210.138 30.0363 210.253C30.0267 210.343 30.0047 210.446 30.0082 210.548C29.9994 210.663 29.9774 210.766 29.9686 210.881C29.9467 210.984 29.9501 211.086 29.9413 211.201C29.9325 211.317 29.9228 211.406 29.914 211.522C29.8938 211.676 29.8858 211.817 29.8787 211.983C29.8577 212.111 29.862 212.239 29.8409 212.367C29.8329 212.508 29.8241 212.623 29.8162 212.764C29.8065 212.854 29.81 212.956 29.8003 213.046C29.7915 213.161 29.7958 213.289 29.787 213.404C29.7904 213.506 29.7807 213.596 29.7842 213.698C29.7885 213.825 29.7806 213.966 29.7718 214.081C29.7621 214.171 29.7647 214.248 29.7681 214.35C29.7628 214.567 29.7697 214.771 29.7643 214.989C29.766 215.04 29.7677 215.091 29.7572 215.155C29.7501 215.321 29.7684 215.487 29.7613 215.653C29.7639 215.729 29.7674 215.832 29.77 215.908C29.7743 216.036 29.7795 216.189 29.7838 216.316C29.7864 216.393 29.7898 216.495 29.7924 216.572C29.7976 216.725 29.815 216.865 29.8202 217.018C29.8228 217.094 29.8254 217.171 29.828 217.247C29.848 217.464 29.868 217.68 29.888 217.897C29.8889 217.922 29.9029 217.96 29.8915 217.999C29.9107 218.19 29.9298 218.381 29.949 218.572C29.9516 218.648 29.9664 218.712 29.9821 218.801C29.9996 218.94 30.0179 219.106 30.0353 219.246C30.0379 219.322 30.0536 219.411 30.0685 219.475C30.0991 219.627 30.1042 219.78 30.1348 219.932C30.1497 219.996 30.1522 220.072 30.1671 220.135C30.2003 220.364 30.2325 220.568 30.278 220.783C30.2788 220.809 30.292 220.821 30.2797 220.834C30.312 221.037 30.3565 221.228 30.3888 221.431C30.4037 221.494 30.4185 221.558 30.4343 221.646C30.4648 221.799 30.4954 221.951 30.5382 222.09C30.5662 222.166 30.5688 222.242 30.5968 222.318C30.6273 222.47 30.6702 222.609 30.7007 222.761C30.7156 222.825 30.7304 222.888 30.7453 222.952C30.803 223.154 30.8484 223.37 30.9192 223.584C30.9192 223.584 30.9323 223.597 30.9201 223.61C30.9778 223.812 31.0354 224.015 31.0931 224.217C31.108 224.28 31.1228 224.344 31.1631 224.406C31.2059 224.545 31.2619 224.697 31.3047 224.836C31.3327 224.911 31.3475 224.975 31.3755 225.05C31.4183 225.189 31.4743 225.341 31.5294 225.467C31.5443 225.53 31.5845 225.593 31.5993 225.656C31.6824 225.857 31.7524 226.047 31.8355 226.248C33.0545 229.221 34.1775 231.61 35.1825 233.517C35.4808 234.069 35.752 234.571 36.0223 235.047C36.2926 235.523 36.5489 235.961 36.8166 236.361C37.1928 236.961 37.5541 237.498 37.8875 237.96C37.9942 238.109 38.101 238.259 38.2077 238.409C38.6338 238.982 39.0048 239.429 39.3478 239.8C39.4275 239.9 39.5062 239.974 39.5981 240.06C39.7294 240.183 39.8484 240.32 39.9534 240.418C36.8559 243.539 33.8906 246.808 31.0819 250.199L28.9224 252.866C25.0106 257.841 21.4253 263.073 18.2032 268.523C19.0526 259.437 20.3413 233.27 7.34287 231.888C6.78168 231.83 6.27212 231.796 5.76344 231.788C5.63648 231.793 5.52179 231.784 5.39484 231.788L5.36945 231.789C5.24249 231.793 5.14093 231.797 5.0271 231.813L5.0017 231.814C4.90014 231.818 4.78631 231.834 4.68475 231.838L4.65936 231.839C4.48162 231.845 4.36779 231.862 4.26623 231.865L4.24083 231.866C4.13927 231.869 4.03857 231.898 3.93701 231.902C3.92474 231.915 3.91161 231.903 3.89935 231.916C3.81091 231.932 3.69708 231.948 3.60865 231.964C3.59638 231.977 3.58325 231.965 3.57099 231.978C3.48255 231.994 3.38185 232.023 3.29341 232.039C3.28115 232.052 3.26802 232.04 3.25576 232.053C3.16732 232.069 3.07888 232.084 2.99131 232.126C2.97904 232.139 2.96592 232.127 2.95365 232.14C2.86521 232.156 2.7899 232.184 2.70233 232.225C2.69007 232.238 2.67693 232.226 2.66467 232.239C2.58936 232.267 2.50093 232.283 2.41335 232.324C2.40109 232.337 2.38796 232.325 2.3757 232.338C2.30039 232.366 2.22508 232.395 2.1375 232.436C2.12524 232.449 2.11211 232.437 2.09984 232.45C2.02453 232.478 1.94922 232.506 1.87477 232.56C1.86251 232.573 1.84939 232.561 1.83712 232.574C1.76181 232.602 1.69963 232.642 1.61205 232.684C1.59979 232.697 1.59979 232.697 1.57439 232.698C1.51221 232.738 1.4369 232.766 1.36245 232.82C1.35019 232.833 1.35019 232.833 1.3248 232.834C1.26261 232.874 1.20044 232.915 1.12599 232.969C1.11372 232.982 1.11372 232.982 1.10146 232.995C1.03927 233.035 0.977088 233.076 0.90264 233.129C0.890375 233.143 0.890375 233.143 0.878111 233.156C0.815926 233.196 0.754604 233.262 0.69242 233.303C0.680155 233.316 0.680161 233.316 0.667896 233.329C0.605712 233.37 0.54439 233.436 0.495332 233.488L0.483068 233.501C0.43401 233.554 0.372694 233.62 0.310509 233.661L0.298245 233.674C0.249187 233.727 0.187865 233.793 0.138808 233.845L0.126543 233.859C0.0774909 233.911 0.0161689 233.977 -0.0197617 234.042C-0.0197617 234.042 -0.0197617 234.042 -0.032026 234.056C-0.093348 234.122 -0.129273 234.187 -0.190595 234.253C-0.23879 234.331 -0.287848 234.384 -0.336038 234.462C-1.39803 236.133 -1.61109 238.478 -1.20095 241.211C-1.18437 241.325 -1.16779 241.439 -1.15121 241.554C-1.15121 241.554 -1.15121 241.554 -1.13808 241.566C-1.1215 241.68 -1.10493 241.795 -1.07609 241.896L-1.07522 241.922C-1.05865 242.036 -1.0298 242.137 -1.01322 242.252C-1.0001 242.264 -1.01236 242.277 -0.999233 242.289C-0.982655 242.404 -0.953814 242.505 -0.92411 242.632C-0.910983 242.644 -0.923247 242.657 -0.91012 242.67C-0.893543 242.784 -0.864701 242.885 -0.822733 242.999C-0.82187 243.024 -0.808738 243.037 -0.821002 243.05C-0.792161 243.151 -0.775584 243.265 -0.733615 243.379C-0.732752 243.404 -0.719625 243.417 -0.718763 243.442C-0.689921 243.543 -0.673338 243.658 -0.63137 243.771C-0.630507 243.797 -0.61738 243.809 -0.616518 243.835C-0.587676 243.936 -0.558835 244.037 -0.529131 244.164C-0.528268 244.189 -0.515141 244.202 -0.514278 244.227C-0.485431 244.328 -0.443463 244.442 -0.414621 244.543C-0.413759 244.569 -0.400632 244.581 -0.386642 244.619C-0.357801 244.72 -0.315831 244.834 -0.28699 244.935C-0.286127 244.96 -0.259873 244.985 -0.25901 245.011C-0.230169 245.112 -0.1882 245.225 -0.159359 245.326C-0.158496 245.352 -0.144507 245.39 -0.13138 245.402C-0.102538 245.503 -0.0605645 245.617 -0.0317231 245.718C-0.0308604 245.744 -0.0168712 245.781 -0.00374371 245.794C0.0250977 245.895 0.0670666 246.009 0.0959087 246.11C0.109898 246.148 0.11076 246.173 0.137014 246.198C0.165856 246.299 0.20783 246.412 0.236671 246.514C0.250661 246.552 0.251523 246.577 0.277777 246.602C0.306619 246.703 0.348588 246.816 0.402821 246.917C0.41681 246.955 0.417673 246.98 0.443927 247.005C0.485896 247.118 0.527007 247.206 0.568976 247.32C0.582965 247.358 0.583822 247.383 0.597812 247.421C0.639785 247.535 0.680892 247.623 0.72286 247.736C0.73685 247.774 0.75084 247.812 0.763966 247.824C0.805935 247.938 0.84704 248.026 0.889009 248.139C0.902998 248.177 0.916994 248.215 0.93012 248.227C0.972089 248.341 1.0132 248.429 1.05516 248.542C1.06915 248.58 1.08314 248.618 1.1094 248.643C1.15137 248.756 1.2056 248.857 1.23445 248.958C1.24844 248.996 1.26242 249.033 1.27641 249.071C1.31838 249.185 1.37261 249.285 1.41458 249.399C1.42857 249.437 1.44256 249.474 1.45569 249.487C1.49766 249.6 1.55189 249.701 1.59386 249.814C1.60785 249.852 1.62184 249.89 1.6481 249.914C1.70233 250.015 1.74429 250.128 1.79853 250.229C1.81252 250.266 1.83878 250.291 1.85277 250.329C1.907 250.429 1.94897 250.543 2.0032 250.643C2.01719 250.681 2.03118 250.719 2.05743 250.744C2.11167 250.844 2.15364 250.957 2.20787 251.058C2.22186 251.096 2.24812 251.12 2.24898 251.146C2.30321 251.246 2.35831 251.372 2.41254 251.472C2.42653 251.51 2.45278 251.535 2.45365 251.56C2.50788 251.661 2.56298 251.786 2.61721 251.887C2.6312 251.925 2.64433 251.937 2.65831 251.975C2.72567 252.088 2.76765 252.201 2.83501 252.314C2.83587 252.339 2.86212 252.364 2.86299 252.389C2.93035 252.502 2.98544 252.628 3.0528 252.741C3.06593 252.753 3.06679 252.778 3.09305 252.803C3.14814 252.929 3.2155 253.042 3.29599 253.167C3.30912 253.179 3.30998 253.204 3.30998 253.204C3.37821 253.343 3.44556 253.455 3.51378 253.593C4.04299 254.585 4.60986 255.562 5.20211 256.538C5.26947 256.65 5.34996 256.775 5.41732 256.888C5.44357 256.913 5.44443 256.938 5.47069 256.963C5.52492 257.063 5.60455 257.163 5.65878 257.263C5.67277 257.301 5.71215 257.338 5.72614 257.376C5.78038 257.476 5.84687 257.563 5.90111 257.663C5.92822 257.714 5.9676 257.751 5.98159 257.788C6.04809 257.876 6.10232 257.976 6.15569 258.051C6.18281 258.101 6.20993 258.151 6.24931 258.188C6.31581 258.275 6.35691 258.363 6.42341 258.45C6.45053 258.501 6.49077 258.563 6.51789 258.613C6.57126 258.688 6.62549 258.788 6.67886 258.863C6.7191 258.926 6.74623 258.976 6.78647 259.038C6.83984 259.113 6.89321 259.188 6.94744 259.288C6.98769 259.351 7.01481 259.401 7.05505 259.463C7.10842 259.538 7.16179 259.613 7.21516 259.688C7.25541 259.75 7.29565 259.813 7.32277 259.863C7.37614 259.938 7.4295 260.013 7.48287 260.088C7.52311 260.15 7.56336 260.213 7.60361 260.275C7.65698 260.35 7.71035 260.425 7.76372 260.499C7.80396 260.562 7.84421 260.624 7.88445 260.687C7.93782 260.762 7.99119 260.837 8.04457 260.911C8.08481 260.974 8.12505 261.036 8.17756 261.086C8.23093 261.161 8.2843 261.235 8.33767 261.31C8.37791 261.373 8.41816 261.435 8.47067 261.484C8.52404 261.559 8.56429 261.622 8.61766 261.697C8.6579 261.759 8.71127 261.834 8.76377 261.883C8.81714 261.958 8.85739 262.021 8.92303 262.082C8.96327 262.145 9.01663 262.219 9.06914 262.269C9.12251 262.344 9.16276 262.406 9.2284 262.468C9.26864 262.53 9.32201 262.605 9.37451 262.654C9.42788 262.729 9.46813 262.792 9.53377 262.853C9.57401 262.916 9.63964 262.977 9.67989 263.04C9.73326 263.115 9.78577 263.164 9.83914 263.239C9.87938 263.301 9.94502 263.363 9.98526 263.425C10.0255 263.488 10.0911 263.55 10.1314 263.612C10.1716 263.675 10.2373 263.736 10.2775 263.799C10.3177 263.861 10.3834 263.923 10.4236 263.985C10.4639 264.048 10.5295 264.109 10.5697 264.172C10.61 264.234 10.6756 264.296 10.7159 264.359C10.7561 264.421 10.8217 264.483 10.862 264.545C10.9022 264.608 10.9679 264.669 11.0081 264.732C11.0484 264.794 11.114 264.856 11.1542 264.918C11.1945 264.981 11.2601 265.043 11.3004 265.105C11.3406 265.168 11.4062 265.229 11.4465 265.292C11.4867 265.354 11.5524 265.416 11.5926 265.478C11.6451 265.528 11.6985 265.602 11.751 265.652C11.8035 265.701 11.8569 265.776 11.9094 265.825C11.9619 265.874 12.0153 265.949 12.0678 265.999C12.1203 266.048 12.1605 266.11 12.2261 266.172C12.2787 266.221 12.332 266.296 12.3845 266.345C12.437 266.395 12.4773 266.457 12.5298 266.506C12.5823 266.556 12.6357 266.631 12.6882 266.68C12.7407 266.729 12.7809 266.792 12.8334 266.841C12.8859 266.89 12.9393 266.965 12.9918 267.014C13.0443 267.064 13.0846 267.126 13.1371 267.176C13.1896 267.225 13.243 267.3 13.2955 267.349C13.348 267.398 13.3882 267.461 13.4407 267.51C13.4932 267.559 13.5466 267.634 13.5991 267.684C13.6516 267.733 13.7041 267.782 13.7444 267.845C13.7969 267.894 13.8625 267.956 13.9028 268.018C13.9553 268.067 14.0078 268.117 14.048 268.179C14.1005 268.228 14.153 268.278 14.2064 268.353C14.2589 268.402 14.3114 268.451 14.3639 268.5C14.4164 268.55 14.4821 268.611 14.5346 268.661C14.5871 268.71 14.6396 268.759 14.679 268.796C14.7315 268.846 14.784 268.895 14.8496 268.956C14.9021 269.006 14.9546 269.055 14.994 269.092C15.0465 269.141 15.099 269.191 15.1516 269.24C15.2041 269.289 15.2434 269.326 15.2959 269.376C15.3485 269.425 15.401 269.474 15.4535 269.523C15.506 269.573 15.5454 269.61 15.5979 269.659C15.6504 269.708 15.7029 269.758 15.7554 269.807C15.8079 269.856 15.8473 269.893 15.8998 269.943C15.9523 269.992 16.0048 270.041 16.0573 270.09C16.0967 270.127 16.1492 270.177 16.1886 270.214C16.2411 270.263 16.2936 270.312 16.3592 270.374C16.3986 270.411 16.4511 270.46 16.4905 270.497C16.543 270.546 16.6086 270.608 16.6734 270.644C16.6865 270.657 16.7128 270.681 16.7259 270.694C14.4466 274.706 12.3748 278.839 10.5095 283.067C9.99061 284.259 9.4717 285.452 8.97903 286.67L8.0761 288.911C6.21583 293.662 4.5744 298.496 3.04938 303.389C2.58865 295.025 -0.382219 277.831 -16.3648 271.645C-19.4942 270.436 -21.7521 270.194 -23.2863 270.68C-23.2863 270.68 -23.2986 270.694 -23.3117 270.681C-23.4501 270.724 -23.5753 270.78 -23.7005 270.835C-23.7005 270.835 -23.7128 270.848 -23.7259 270.836C-23.8511 270.891 -23.9632 270.959 -24.0885 271.014C-24.3249 271.163 -24.5229 271.323 -24.72 271.509C-24.8058 271.601 -24.8917 271.693 -24.9644 271.798L-24.9767 271.811C-25.0494 271.916 -25.1221 272.02 -25.1817 272.137C-25.1817 272.137 -25.1817 272.137 -25.194 272.151C-25.3981 272.503 -25.5376 272.89 -25.6376 273.315C-25.6376 273.315 -25.6498 273.329 -25.6367 273.341C-25.6701 273.483 -25.6903 273.637 -25.7236 273.778C-25.7236 273.778 -25.7359 273.791 -25.7228 273.804C-25.7834 274.266 -25.8047 274.765 -25.7611 275.3L-25.7603 275.325C-25.7542 275.504 -25.7359 275.669 -25.7168 275.86L-25.7159 275.886C-25.6461 276.445 -25.537 277.042 -25.3762 277.662C-25.3631 277.675 -25.3753 277.688 -25.3622 277.7C-25.3045 277.903 -25.26 278.093 -25.1892 278.307C-25.176 278.32 -25.1752 278.345 -25.1752 278.345C-25.1175 278.548 -25.0467 278.762 -24.9759 278.977L-24.9627 278.99C-24.8211 279.419 -24.6533 279.873 -24.4854 280.327C-24.4722 280.34 -24.4714 280.365 -24.4714 280.365C-24.3874 280.592 -24.2912 280.806 -24.2073 281.033C-24.2064 281.059 -24.1933 281.071 -24.1793 281.109C-24.0831 281.323 -23.9861 281.562 -23.8899 281.776C-23.8767 281.788 -23.8759 281.814 -23.8759 281.814C-23.6695 282.279 -23.4377 282.744 -23.205 283.234C-23.1919 283.247 -23.191 283.272 -23.1779 283.284C-23.0686 283.511 -22.9461 283.749 -22.8114 283.975C-22.7974 284.012 -22.7843 284.025 -22.7703 284.063C-22.6478 284.301 -22.5131 284.526 -22.3907 284.765C-22.3775 284.777 -22.3636 284.815 -22.3504 284.827C-22.0801 285.304 -21.7836 285.804 -21.487 286.305C-21.4739 286.318 -21.473 286.343 -21.4599 286.355C-21.312 286.593 -21.1642 286.831 -21.0163 287.068C-21.0024 287.106 -20.9761 287.131 -20.9621 287.169C-20.8143 287.406 -20.6664 287.644 -20.5063 287.868C-20.48 287.893 -20.4661 287.931 -20.4398 287.956C-20.2788 288.206 -20.1187 288.43 -19.9577 288.68C-19.9446 288.692 -19.9315 288.705 -19.9306 288.73C-19.7696 288.98 -19.5964 289.217 -19.4232 289.454C-19.41 289.466 -19.3969 289.478 -19.396 289.504C-19.2228 289.741 -19.0496 289.978 -18.8763 290.214C-18.8501 290.239 -18.823 290.289 -18.7967 290.314C-18.6235 290.551 -18.4502 290.787 -18.2647 291.011C-18.2254 291.048 -18.2114 291.086 -18.172 291.123C-17.9987 291.36 -17.8001 291.595 -17.6269 291.832C-17.6006 291.857 -17.5998 291.882 -17.5735 291.907C-17.3871 292.156 -17.2016 292.38 -17.003 292.616C-16.9899 292.628 -16.9767 292.64 -16.9636 292.653C-16.765 292.889 -16.5664 293.124 -16.3677 293.36C-16.3284 293.397 -16.3144 293.435 -16.275 293.472C-16.0895 293.696 -15.8909 293.932 -15.6931 294.142C-15.6537 294.179 -15.6266 294.229 -15.5872 294.266C-15.3886 294.502 -15.1908 294.713 -14.9922 294.948C-14.9659 294.973 -14.9265 295.01 -14.9125 295.048C-14.7017 295.271 -14.4899 295.519 -14.279 295.742L-14.2659 295.754C-14.055 295.977 -13.831 296.212 -13.6201 296.434C-13.5807 296.471 -13.5544 296.496 -13.5151 296.533C-13.3042 296.756 -13.0933 296.979 -12.8832 297.176C-12.8439 297.213 -12.8045 297.25 -12.7651 297.287C-12.5542 297.509 -12.331 297.719 -12.121 297.916C-12.0816 297.953 -12.0554 297.978 -12.016 298.015C-11.7797 298.237 -11.5565 298.446 -11.3203 298.668C-11.3071 298.68 -11.3071 298.68 -11.294 298.693C-11.0708 298.902 -10.8346 299.124 -10.6114 299.334C-10.5852 299.358 -10.5458 299.395 -10.5195 299.42C-10.2964 299.629 -10.0609 299.826 -9.83778 300.035C-9.7984 300.072 -9.75902 300.109 -9.71964 300.146C-9.48422 300.343 -9.27418 300.54 -9.03876 300.736C-8.99938 300.773 -8.95999 300.81 -8.90835 300.834C-8.67293 301.03 -8.4375 301.227 -8.18896 301.435C-8.17583 301.448 -8.14958 301.472 -8.13645 301.485C-7.90102 301.681 -7.65334 301.864 -7.41792 302.06C-7.39167 302.085 -7.36541 302.11 -7.3269 302.121C-7.07921 302.304 -6.84378 302.501 -6.60922 302.671C-6.56984 302.708 -6.51819 302.732 -6.47881 302.769C-6.24425 302.94 -5.99657 303.123 -5.76201 303.294C-5.72263 303.331 -5.67098 303.355 -5.6316 303.392C-5.38391 303.575 -5.13708 303.732 -4.87714 303.902C-4.85088 303.927 -4.81237 303.939 -4.79924 303.951C-4.55243 304.108 -4.29247 304.278 -4.04564 304.436C-4.03251 304.448 -3.99401 304.46 -3.98088 304.472C-3.72093 304.642 -3.4741 304.8 -3.21501 304.944C-3.16337 304.968 -3.12399 305.005 -3.08547 305.016C-2.83864 305.174 -2.57955 305.319 -2.33359 305.451C-2.28195 305.474 -2.24257 305.511 -2.19093 305.535C-1.93184 305.68 -1.67274 305.824 -1.42679 305.956C-1.38827 305.968 -1.36201 305.992 -1.32349 306.004C-1.0644 306.148 -0.793054 306.279 -0.533965 306.424C-0.520836 306.436 -0.50771 306.448 -0.49544 306.435C-0.224092 306.567 0.0472557 306.698 0.305478 306.817C0.343999 306.828 0.39564 306.852 0.421894 306.877C0.680127 306.996 0.938349 307.114 1.19658 307.233C1.24822 307.257 1.29987 307.281 1.33838 307.292C1.4802 307.351 1.622 307.41 1.77693 307.482C-0.38933 314.837 -2.36213 322.275 -4.42597 329.652L-5.40132 333.134C-6.57221 337.223 -7.79474 341.289 -9.12056 345.307C-12.7476 337.651 -24.8706 313.667 -34.035 312.154C-36.8339 311.7 -38.835 312.663 -40.0696 314.493C-40.0941 314.519 -40.0932 314.545 -40.1178 314.571C-40.3228 314.898 -40.5147 315.236 -40.6926 315.613C-40.704 315.652 -40.7163 315.665 -40.7277 315.703C-40.8802 316.079 -41.0319 316.48 -41.145 316.893C-41.1564 316.932 -41.1556 316.957 -41.167 316.996C-41.2231 317.215 -41.267 317.421 -41.3232 317.64C-41.3232 317.64 -41.3354 317.653 -41.3223 317.665C-41.3662 317.871 -41.3969 318.089 -41.44 318.321C-41.4514 318.36 -41.4505 318.385 -41.4619 318.424C-41.4926 318.642 -41.5225 318.886 -41.5402 319.116C-41.5393 319.142 -41.5516 319.155 -41.5507 319.181C-41.5683 319.411 -41.5737 319.628 -41.5913 319.859C-41.5905 319.884 -41.6019 319.923 -41.5879 319.961C-41.5924 320.204 -41.5969 320.447 -41.5882 320.702C-41.5874 320.727 -41.5856 320.778 -41.5848 320.804C-41.577 321.034 -41.5692 321.263 -41.5484 321.505C-41.5475 321.531 -41.5466 321.556 -41.5326 321.594C-41.524 321.849 -41.49 322.104 -41.456 322.358C-41.4542 322.409 -41.4403 322.447 -41.4517 322.486C-41.4308 322.728 -41.3845 322.969 -41.3636 323.211C-41.3627 323.236 -41.3619 323.262 -41.361 323.287C-41.327 323.542 -41.2798 323.808 -41.2327 324.075C-41.231 324.126 -41.2039 324.176 -41.2021 324.227C-41.1427 324.481 -41.1087 324.735 -41.0362 325.001C-41.023 325.013 -41.0353 325.026 -41.0222 325.038C-40.9496 325.304 -40.8894 325.583 -40.8168 325.849C-40.802 325.912 -40.788 325.95 -40.7731 326.014C-40.628 326.545 -40.4445 327.088 -40.2486 327.618C-40.2337 327.681 -40.2066 327.731 -40.1918 327.795C-40.0939 328.06 -39.9959 328.325 -39.8849 328.602C-39.8717 328.614 -39.8709 328.64 -39.8709 328.64C-39.7607 328.891 -39.6636 329.131 -39.5534 329.383C-39.5263 329.433 -39.4983 329.508 -39.4712 329.559C-39.3479 329.823 -39.2377 330.074 -39.1021 330.325C-39.0881 330.363 -39.0619 330.388 -39.0479 330.425C-38.9254 330.664 -38.8161 330.89 -38.6814 331.116C-38.6543 331.166 -38.614 331.228 -38.5869 331.278C-38.4513 331.529 -38.3035 331.767 -38.1548 332.03C-38.1276 332.08 -38.1014 332.105 -38.0743 332.155C-37.9395 332.38 -37.8057 332.58 -37.671 332.805C-37.6439 332.856 -37.6036 332.918 -37.5642 332.955C-37.4033 333.205 -37.2432 333.43 -37.0699 333.666C-37.0428 333.717 -36.9903 333.766 -36.9632 333.816C-36.8162 334.028 -36.6569 334.227 -36.4977 334.426C-36.4583 334.463 -36.4312 334.513 -36.3918 334.55C-36.2063 334.774 -36.0208 334.997 -35.8353 335.221C-35.7828 335.27 -35.7557 335.32 -35.7032 335.37C-35.5185 335.568 -35.3593 335.767 -35.1624 335.952C-35.1361 335.976 -35.0967 336.013 -35.0705 336.038C-34.8727 336.248 -34.6495 336.458 -34.4518 336.668C-34.3993 336.718 -34.3468 336.767 -34.2943 336.816C-34.0974 337.001 -33.8873 337.198 -33.6782 337.37C-33.665 337.382 -33.6388 337.407 -33.6257 337.419C-33.3902 337.616 -33.1679 337.8 -32.9325 337.996C-32.88 338.045 -32.8152 338.081 -32.7627 338.131C-32.515 338.314 -32.2796 338.51 -32.0328 338.668C-24.4559 343.978 -17.3625 346.265 -12.8548 347.261C-11.6257 347.526 -10.6032 347.695 -9.79862 347.808C-12.0547 354.387 -14.632 360.862 -17.7766 367.101L-17.8361 367.218C-17.8843 367.296 -17.9194 367.387 -17.9676 367.465L-19.0175 369.494C-19.0175 369.494 -19.0175 369.494 -19.0167 369.519C-19.1008 369.663 -19.1718 369.818 -19.2559 369.962L-19.2918 370.027C-20.0218 371.367 -20.765 372.696 -21.5466 374.013C-30.9753 389.868 -43.9646 403.417 -59.3459 413.51C-60.8383 414.481 -59.1006 416.631 -57.6204 415.674C-44.0171 406.753 -32.2221 395.096 -23.0948 381.602C-21.0007 378.503 -19.0756 375.295 -17.3045 372.041L-15.9312 369.427C-12.5203 362.795 -9.69058 355.89 -7.23466 348.832C-7.03862 348.991 -6.83032 349.137 -6.62201 349.284C-6.58263 349.321 -6.51786 349.357 -6.47848 349.394C-6.21766 349.589 -5.94458 349.771 -5.67151 349.954C-5.64525 349.978 -5.61985 349.978 -5.5936 350.002C-5.33364 350.172 -5.0737 350.342 -4.81375 350.512C-4.76211 350.536 -4.73585 350.56 -4.69647 350.597C-4.42426 350.754 -4.16431 350.924 -3.89209 351.081C-3.84044 351.105 -3.77567 351.141 -3.7363 351.178C-3.46408 351.335 -3.205 351.479 -2.93365 351.61C-2.89512 351.622 -2.85575 351.659 -2.81722 351.67C-2.54587 351.801 -2.29991 351.934 -2.02855 352.065C-1.99004 352.076 -1.97691 352.089 -1.95066 352.113C-1.6793 352.244 -1.39569 352.363 -1.13746 352.481C-1.08582 352.505 -1.03418 352.529 -0.982534 352.553C-0.712045 352.658 -0.45382 352.777 -0.171073 352.87C-0.119419 352.894 -0.0808919 352.905 -0.029244 352.929C0.241245 353.035 0.523988 353.127 0.794476 353.233L0.807603 353.245C1.09036 353.338 1.37311 353.43 1.65586 353.523C1.70752 353.547 1.7583 353.545 1.80993 353.569C2.07956 353.649 2.34919 353.729 2.63108 353.796C2.695 353.807 2.74665 353.831 2.79743 353.829C3.07931 353.896 3.34893 353.976 3.61769 354.031C3.6431 354.03 3.68162 354.041 3.69474 354.054C3.9635 354.108 4.22 354.176 4.47564 354.219C4.51416 354.23 4.56495 354.228 4.60346 354.24C4.87222 354.294 5.15324 354.336 5.40888 354.378C5.47279 354.389 5.52358 354.387 5.58749 354.398C5.85539 354.427 6.12415 354.482 6.39205 354.511C6.43057 354.522 6.48135 354.521 6.51987 354.532C6.78778 354.561 7.03029 354.591 7.28506 354.608C7.31045 354.607 7.34897 354.619 7.37435 354.618C7.64226 354.647 7.9093 354.651 8.18946 354.667C8.24025 354.665 8.30415 354.675 8.35493 354.674C8.62198 354.677 8.87674 354.694 9.14378 354.698C9.19457 354.696 9.24535 354.694 9.29613 354.693C9.56316 354.696 9.83021 354.7 10.0972 354.704L10.1226 354.703C10.3897 354.706 10.669 354.697 10.9352 354.675C10.9859 354.673 11.0367 354.672 11.0875 354.67C11.3414 354.661 11.6076 354.639 11.8615 354.631C11.9123 354.629 11.9631 354.627 12.0261 354.612C12.2923 354.59 12.5585 354.568 12.8115 354.534C12.8369 354.533 12.8623 354.533 12.8877 354.532C13.1285 354.511 13.3815 354.477 13.6346 354.442C13.6853 354.441 13.723 354.427 13.7738 354.425C14.0268 354.391 14.2799 354.356 14.5198 354.31C14.6564 354.216 14.7072 354.214 14.7703 354.199Z" fill="#3D4775"/>
<path d="M32.0972 405.783C32.0972 405.783 -70.267 511.77 -89.7074 604.885C-96.3076 636.479 -94.4266 661.509 -89.0431 680.787C-77.832 720.986 -28.5623 734.291 1.03513 705.124C15.2299 691.137 29.2422 670.408 39.1559 639.704C68.3616 549.221 32.0972 405.783 32.0972 405.783Z" fill="#2F8C91"/>
<path d="M-29.4982 649.575C-27.8306 643.223 -26.156 636.882 -24.4884 630.53C-1.16919 625.124 22.1571 619.728 45.486 614.314C45.629 613.554 45.772 612.794 45.8982 612.031C22.6418 617.421 -0.614591 622.81 -23.871 628.2C-22.2926 622.204 -20.7116 616.191 -19.1332 610.195C3.0951 604.664 25.5477 600.134 48.152 596.63C48.2295 595.904 48.3239 595.18 48.4014 594.454C25.9156 597.915 3.60105 602.386 -18.5132 607.847C-16.9957 602.079 -15.4783 596.311 -13.9609 590.542C7.30452 586.234 28.5602 581.932 49.8256 577.624C49.8695 576.892 49.9135 576.161 49.9503 575.42C28.8539 579.693 7.74059 583.963 -13.3558 588.237C-11.7695 582.189 -10.1664 576.144 -8.58009 570.096C10.9197 564.346 30.6393 559.403 50.53 555.304C50.5305 554.575 50.5382 553.855 50.529 553.133C30.8533 557.178 11.3443 562.039 -7.9521 567.697C-6.31279 561.473 -4.67347 555.249 -3.04124 549.016C14.5409 544.094 32.3145 539.94 50.2237 536.581C50.2049 535.866 50.1692 535.149 50.1503 534.434C32.4728 537.741 14.9363 541.809 -2.41589 546.634C-1.08395 541.566 0.257732 536.492 1.58968 531.424C17.2971 526.327 33.2109 521.957 49.2852 518.331C49.2327 517.611 49.1873 516.901 49.1347 516.181C33.3214 519.733 17.6809 524.005 2.23269 528.984C3.85699 522.801 5.48128 516.619 7.10558 510.436C20.1277 504.784 33.6759 500.575 47.545 497.858C47.4731 497.152 47.4011 496.447 47.322 495.731C33.774 498.376 20.5407 502.44 7.77948 507.851C8.33594 505.749 8.88532 503.637 9.44177 501.534C9.70795 501.259 9.84579 500.867 9.73148 500.436C10.1307 498.907 10.537 497.388 10.9362 495.859C21.9899 490.193 33.8928 486.609 46.1497 485.25C46.061 484.542 45.9793 483.844 45.8905 483.136C34.0069 484.473 22.456 487.839 11.6579 493.132C12.8803 488.496 14.093 483.867 15.3154 479.231C24.6933 475.336 34.3042 472.162 44.1118 469.722C44.0062 469.012 43.9077 468.311 43.8021 467.6C34.3351 469.952 25.0462 472.991 15.984 476.68C17.1128 472.372 18.2584 468.067 19.3872 463.759C25.9722 462.183 32.5404 460.605 39.1254 459.03C40.2073 458.766 41.3131 458.515 42.3949 458.252C42.2796 457.548 42.1714 456.855 42.0632 456.161C40.4452 456.553 38.8326 456.91 37.2341 457.287C31.4895 458.659 25.7519 460.04 20.0073 461.411C20.9656 457.763 21.9213 454.131 22.8796 450.483C28.4946 448.054 34.2026 445.86 39.9983 443.934C39.876 443.221 39.7438 442.515 39.6188 441.819C34.1955 443.618 28.8413 445.638 23.573 447.883C24.6938 443.626 25.8049 439.377 26.9329 435.131C30.4684 433.744 34.0474 432.521 37.6839 431.483C37.5447 430.768 37.4029 430.069 37.2681 429.38C34.0084 430.318 30.7709 431.391 27.5891 432.605C28.2604 430.037 28.9387 427.478 29.61 424.91C31.6913 424.08 33.7656 423.241 35.8372 422.418C35.6909 421.693 35.5393 421.001 35.3948 420.32C33.6885 421.005 31.9823 421.691 30.2857 422.369C31.2899 418.534 32.3013 414.709 33.3153 410.867C32.5503 407.568 32.094 405.783 32.094 405.783C32.094 405.783 30.8462 407.067 28.6151 409.482C27.4916 413.756 26.3682 418.029 25.2447 422.303C24.4166 420.25 23.4381 418.28 22.3456 416.379C21.8663 416.921 21.3773 417.469 20.8689 418.032C22.235 420.502 23.3995 423.107 24.319 425.851C23.5409 428.833 22.7459 431.813 21.9678 434.795C20.3559 430.793 18.4212 426.988 16.1637 423.378C15.6844 423.919 15.2122 424.47 14.7206 425.036C17.0737 428.862 19.0696 432.941 20.6657 437.213C20.7675 437.501 20.9552 437.679 21.1702 437.791C19.7217 443.28 18.2829 448.762 16.8343 454.251C13.5961 447.625 10.1226 441.13 6.44044 434.76C5.96561 435.329 5.48105 435.904 5.00357 436.49C8.92748 443.3 12.6037 450.266 16.0182 457.368C14.7242 462.3 13.4205 467.24 12.1266 472.173C7.53818 463.141 2.71717 454.223 -2.30551 445.441C-2.78299 446.027 -3.24367 446.615 -3.7238 447.217C1.52642 456.421 6.54846 465.766 11.3255 475.248C9.73917 481.296 8.14313 487.351 6.55681 493.398C0.869154 481.227 -5.27668 469.292 -11.8568 457.606C-12.3201 458.211 -12.7834 458.816 -13.2565 459.429C-6.45146 471.553 -0.11965 483.957 5.72746 496.601C4.68257 500.588 3.62795 504.582 2.58308 508.569C-5.81885 496.365 -14.2208 484.16 -22.6227 471.956C-23.0595 472.556 -23.4963 473.157 -23.9428 473.764C-15.3452 486.263 -6.73789 498.754 1.86676 511.262C-0.169153 518.998 -2.20505 526.734 -4.24095 534.47C-12.3823 517.226 -21.44 500.455 -31.3741 484.235C-31.8162 484.87 -32.2486 485.497 -32.6907 486.132C-22.5528 502.762 -13.3277 519.953 -5.07473 537.645C-6.93309 544.732 -8.79853 551.809 -10.6666 558.903C-22.3469 541.226 -34.0343 523.54 -45.7146 505.863C-46.1257 506.521 -46.5439 507.168 -46.9453 507.818C-35.0906 525.758 -23.2359 543.699 -11.3714 561.632C-12.0807 564.335 -12.7899 567.038 -13.5063 569.731C-14.3657 573.017 -15.2419 576.3 -16.1013 579.586C-29.2853 560.5 -42.4764 541.404 -55.6604 522.318C-56.0476 522.987 -56.4446 523.664 -56.8247 524.344C-43.4849 543.647 -30.1477 562.968 -16.8079 582.272C-18.1398 587.339 -19.4717 592.407 -20.8037 597.474C-36.1398 579.286 -51.4759 561.098 -66.8217 542.917C-67.1682 543.601 -67.5148 544.286 -67.8542 544.981C-52.4729 563.211 -37.1014 581.449 -21.7202 599.679C-21.6325 599.781 -21.5396 599.848 -21.4467 599.915C-23.3554 607.161 -25.2544 614.399 -27.1631 621.645C-43.237 601.488 -59.3012 581.324 -75.3751 561.168C-75.6862 561.902 -76.007 562.643 -76.3181 563.377C-60.1592 583.653 -44.0003 603.928 -27.8317 624.196C-29.2626 629.626 -30.6838 635.049 -32.1146 640.479C-49.7676 622.75 -67.4373 605.019 -85.0902 587.29C-85.3297 588.061 -85.5594 588.825 -85.782 589.6C-68.0981 607.351 -50.4168 625.119 -32.7329 642.871C-34.26 648.646 -35.7704 654.424 -37.2976 660.2C-56.0676 645.084 -73.9853 628.905 -90.9771 611.744C-91.1289 612.617 -91.2781 613.473 -91.4104 614.331C-74.4602 631.372 -56.5939 647.437 -37.8752 662.439C-40.3359 671.815 -42.8135 681.187 -45.2742 690.563C-62.1176 677.072 -78.3022 662.769 -93.805 647.727C-93.7763 648.769 -93.7352 649.786 -93.6869 650.813C-78.4868 665.474 -62.6244 679.41 -46.1518 692.571C-46.0518 692.648 -45.9492 692.708 -45.8341 692.744C-46.864 696.689 -47.9107 700.631 -48.9405 704.577C-62.8462 694.414 -76.7421 684.243 -90.6406 674.09C-90.4102 675.163 -90.1602 676.221 -89.9076 677.262C-76.4427 687.102 -62.9778 696.942 -49.5226 706.789C-50.5542 710.69 -51.5788 714.601 -52.6007 718.495C-51.0479 718.972 -49.4579 719.376 -47.8671 719.718C-47.58 718.638 -47.2929 717.557 -47.0059 716.476C-32.1892 713.808 -17.3726 711.14 -2.56565 708.479C-1.53091 707.628 -0.521858 706.721 0.475676 705.776C-15.154 708.583 -30.7765 711.399 -46.4159 714.212C-45.4911 710.725 -44.5831 707.236 -43.6584 703.749C-25.1962 700.264 -6.73141 696.762 11.7307 693.277C12.3824 692.455 13.0296 691.606 13.6698 690.747C-5.23645 694.321 -24.1524 697.903 -43.0657 701.468C-41.6375 696.055 -40.219 690.649 -38.7908 685.236C-17.7763 681.662 3.23109 678.078 24.2456 674.504C24.6849 673.72 25.1243 672.935 25.5592 672.123C4.30589 675.74 -16.9404 679.366 -38.1839 682.975C-36.9483 678.253 -35.6958 673.533 -34.4601 668.811C-34.4222 668.677 -34.3939 668.549 -34.3559 668.414C-12.1743 663.465 10.2291 659.701 32.7772 657.12C33.098 656.379 33.4118 655.627 33.7184 654.866C11.0624 657.422 -11.4516 661.177 -33.7412 666.101C-33.5787 665.494 -33.4161 664.886 -33.2633 664.286C-33.2015 664.163 -33.1635 664.028 -33.1618 663.906C-32.1222 659.953 -31.0826 656.001 -30.0333 652.041C-6.66435 644.972 17.0085 639.058 40.9181 634.288C41.131 633.521 41.3606 632.757 41.5664 631.98C17.5498 636.663 -6.12041 642.56 -29.4982 649.575Z" fill="#286F7F"/>
<path d="M-3.48423 537.294C-19.1279 534.873 -39.3393 544.187 -46.5047 547.844C-40.5941 539.218 -35.2586 530.456 -30.5254 521.558C21.8274 519.168 69.9034 491.766 69.9034 491.766C69.9034 491.766 58.2795 495.819 25.4834 499.87C-3.46505 503.451 -22.8664 515.125 -29.5672 519.738C-25.1949 511.354 -21.3578 502.88 -18.0668 494.323C-16.8742 491.221 -15.758 488.105 -14.7125 484.987C-0.792557 476.996 23.5584 482.46 46.3666 477.999C63.5322 474.648 79.1822 448.703 79.1822 448.703C79.1822 448.703 62.8868 470.441 36.1426 467.764C14.782 465.626 -6.79573 479.208 -14.6394 484.764C-11.3289 474.835 -8.74931 464.816 -6.92074 454.746C-2.1322 453.882 13.8505 450.837 29.5019 446.184C47.9396 440.694 87.1462 420.749 87.1462 420.749C87.1462 420.749 69.936 421.306 46.3292 427.062C27.2579 431.719 0.039806 449.383 -6.76661 453.929C-5.28196 445.555 -4.30352 437.146 -3.8419 428.706C0.871956 427.296 16.8094 422.452 33.1589 416.576C52.6366 409.571 96.6784 378.075 96.6784 378.075C96.6784 378.075 82.2136 383.247 51.1713 394.005C24.4865 403.259 1.98666 422.54 -3.80609 427.774C-3.42211 420.164 -3.4514 412.537 -3.90459 404.897C-1.16072 399.427 4.58376 382.999 -1.69587 349.263C-9.07646 309.587 -14.5073 297.448 -14.5073 297.448C-14.5073 297.448 -26.0768 370.073 -6.70892 404.523C-6.28236 411.449 -6.22481 418.233 -6.46561 424.878C-11.4512 418.419 -29.9107 395.517 -54.6392 377.307C-83.7215 355.898 -93.1921 350.58 -93.1921 350.58C-93.1921 350.58 -53.6772 396.118 -34.6104 408.955C-19.5643 419.078 -9.92082 424.228 -6.51757 425.959C-6.91207 435.034 -7.90807 443.846 -9.3876 452.358C-14.3437 446.107 -33.9847 422.823 -56.8104 415.021C-83.2765 405.973 -96.7028 387.314 -96.7028 387.314C-96.7028 387.314 -88.3486 408.26 -55.7586 425.758C-28.7248 440.277 -13.7994 450.076 -9.49368 453.007C-11.4767 464.175 -14.2931 474.833 -17.7436 484.939C-21.5279 479.103 -34.1127 461.609 -54.7791 451.152C-79.8611 438.457 -104.503 415.007 -104.503 415.007C-104.503 415.007 -80.9226 451.627 -52.0166 470.204C-31.1699 483.603 -21.9416 486.351 -18.4055 486.843C-22.4182 498.32 -27.2231 509.082 -32.437 519.065C-35.0059 513.649 -44.4571 496.187 -66.2423 479.603C-92.4473 459.649 -112.76 444.264 -112.76 444.264C-112.76 444.264 -63.8789 508.771 -33.0751 520.297C-38.325 530.189 -43.9733 539.297 -49.7017 547.567C-51.4017 542.597 -57.7196 527.777 -75.2708 516.423C-96.6603 502.589 -102.99 493.273 -109.805 479.843C-109.805 479.843 -100.401 509.857 -85.6985 520.961C-68.4992 533.946 -54.9484 539.349 -49.913 547.869C-53.7407 553.392 -57.5991 558.525 -61.3635 563.269C-91.6749 601.342 -123.746 622.95 -124.069 623.175C-124.709 623.609 -124.894 624.471 -124.485 625.122C-124.427 625.202 -124.37 625.282 -124.302 625.355C-123.851 625.801 -123.137 625.887 -122.569 625.523C-122.241 625.309 -89.8627 603.498 -59.2704 565.097C-55.1111 559.878 -51.1824 554.592 -47.4676 549.245C-40.9394 549.177 -17.1033 548.986 -1.42885 549.902C16.8733 550.97 51.7545 522.761 51.7545 522.761C51.7545 522.761 15.8671 540.291 -3.48423 537.294Z" fill="#E5674E"/>
<path d="M166.098 144.212C166.098 144.212 138 -20.8022 64.8169 -84.6998C39.9752 -106.383 15.4115 -115.38 -6.20929 -117.784C-51.3029 -122.815 -97.5729 -72.079 -90.8243 -25.0357C-87.5883 -2.4664 -77.9669 22.8989 -56.2357 48.0054C7.76789 121.949 166.098 144.212 166.098 144.212Z" fill="#BAE3DD"/>
<path d="M-18.1868 -35.3694C-13.4338 -30.6089 -8.67968 -25.8711 -3.92667 -21.1106C-14.9496 8.12051 -25.984 37.3653 -37.007 66.5964C-36.4031 67.102 -35.7878 67.594 -35.1725 68.086C-24.1747 38.9278 -13.1769 9.76957 -2.19066 -19.375C2.30473 -14.8878 6.79903 -10.3778 11.2944 -5.89061C1.13035 22.1463 -10.0965 49.9877 -22.4037 77.5468C-21.785 77.9704 -21.1664 78.394 -20.5582 78.8085C-8.31288 51.4089 2.90633 23.7271 13.0512 -4.13674C17.3711 0.172788 21.6898 4.50508 26.0096 8.81461C15.384 35.1884 4.74691 61.5759 -5.8787 87.9498C-5.22562 88.3324 -4.58293 88.7058 -3.91837 89.0747C6.63284 62.8969 17.184 36.719 27.7352 10.5412C32.2607 15.0785 36.7873 19.593 41.3128 24.1303C33.2335 49.1272 24.261 74.0059 14.3975 98.7208C15.0642 99.0441 15.7414 99.3765 16.4081 99.6999C26.1825 75.263 35.0877 50.6577 43.11 25.9434C47.7706 30.5991 52.4416 35.264 57.0907 39.9334C49.5684 62.3555 41.1967 84.6502 31.9892 106.758C32.6686 107.045 33.3583 107.341 34.0376 107.628C43.133 85.8253 51.4144 63.8314 58.8672 41.7283C62.6592 45.5276 66.4627 49.3132 70.2547 53.1125C64.186 73.4608 57.2885 93.7 49.5958 113.812C50.2981 114.071 51.0005 114.331 51.6913 114.604C59.2697 94.8431 66.0757 74.9275 72.0727 54.9438C76.7021 59.5723 81.3315 64.2007 85.9609 68.8291C82.2494 86.3286 76.8395 103.788 69.8296 120.96C70.533 121.197 71.2479 121.42 71.9513 121.657C78.8228 104.885 84.1359 87.8637 87.8933 70.7606C89.4745 72.3368 91.0454 73.9039 92.6151 75.4938C92.6922 75.9176 92.9569 76.2684 93.4421 76.3138C94.5787 77.4527 95.7257 78.6007 96.8622 79.7396C94.5151 94.9921 89.6539 110.273 82.4812 124.975C83.1961 125.199 83.9121 125.399 84.627 125.622C91.5623 111.352 96.3889 96.5637 98.8974 81.785C102.369 85.2563 105.831 88.7185 109.303 92.1898C106.47 104.713 102.794 117.186 98.3223 129.555C99.0602 129.751 99.7762 129.951 100.503 130.16C104.835 118.215 108.402 106.193 111.215 94.1031C114.438 97.333 117.662 100.563 120.887 103.77C117.825 112.032 114.763 120.318 111.701 128.58C111.202 129.948 110.681 131.319 110.182 132.687C110.91 132.873 111.637 133.06 112.355 133.237C113.102 131.209 113.882 129.186 114.628 127.18C117.304 119.957 119.968 112.747 122.644 105.524C125.372 108.248 128.1 110.972 130.828 113.696C129.231 121.248 127.319 128.785 125.139 136.3C125.888 136.482 126.638 136.642 127.367 136.805C129.428 129.755 131.229 122.714 132.771 115.637C135.953 118.83 139.137 122.001 142.319 125.195C141.184 129.875 139.844 134.541 138.321 139.19C139.071 139.349 139.822 139.508 140.551 139.649C141.933 135.47 143.142 131.282 144.21 127.09C146.132 129.012 148.054 130.935 149.976 132.857C149.323 135.609 148.66 138.376 148.018 141.137C148.79 141.292 149.542 141.429 150.271 141.57C150.803 139.305 151.356 137.035 151.887 134.77C154.76 137.645 157.622 140.51 160.495 143.385C164.117 143.949 166.097 144.212 166.097 144.212C166.097 144.212 165.761 142.208 165.047 138.567C161.855 135.364 158.651 132.175 155.448 128.964C157.93 128.931 160.433 128.68 162.943 128.269C162.776 127.481 162.609 126.669 162.411 125.831C159.171 126.315 155.946 126.48 152.771 126.308C150.539 124.067 148.306 121.848 146.075 119.607C150.898 119.537 155.786 119.002 160.675 118.017C160.485 117.233 160.307 116.435 160.13 115.615C154.959 116.615 149.791 117.095 144.716 117.014C144.38 117.005 144.071 117.137 143.824 117.324C139.711 113.22 135.609 109.102 131.496 104.997C139.883 104.229 148.307 103.137 156.779 101.731C156.579 100.939 156.38 100.123 156.159 99.3119C147.12 100.791 138.132 101.91 129.16 102.665C125.461 98.9702 121.761 95.2756 118.084 91.5765C129.646 90.3154 141.244 88.7535 152.868 86.9045C152.647 86.0934 152.425 85.3052 152.193 84.485C140.024 86.4253 127.882 88.0329 115.778 89.2942C111.253 84.7569 106.716 80.2333 102.201 75.7051C117.427 74.5933 132.761 72.8388 148.166 70.4829C147.924 69.6764 147.681 68.8699 147.438 68.0634C131.477 70.4788 115.602 72.2333 99.8143 73.3044C96.8285 70.3068 93.8415 67.3321 90.8661 64.3436C107.997 60.128 125.117 55.9032 142.247 51.6875C141.992 50.9175 141.736 50.1475 141.471 49.3683C123.923 53.6935 106.387 58.0049 88.8506 62.3392C83.0639 56.5537 77.2667 50.7591 71.48 44.9736C93.1011 43.3175 114.925 40.3673 136.852 36.1775C136.576 35.3893 136.278 34.6056 135.991 33.8082C113.553 38.0482 91.2311 40.9895 69.0925 42.5956C63.7921 37.2838 58.4801 31.9858 53.1899 26.6831C77.6622 21.1392 102.134 15.5953 126.618 10.0378C126.287 9.2723 125.966 8.51595 125.634 7.75049C100.801 13.3811 75.9552 19.0254 51.1214 24.6559C49.1069 22.6287 47.081 20.6152 45.0666 18.588C42.6075 16.1234 40.1484 13.6589 37.6882 11.2172C64.5208 4.56066 91.3316 -2.09125 118.164 -8.74775C117.799 -9.49497 117.445 -10.2331 117.08 -10.9803C89.9517 -4.2508 62.8232 2.47869 35.6727 9.21274C31.8807 5.41343 28.0772 1.62779 24.2852 -2.17151C51.7432 -11.699 79.2232 -21.2311 106.681 -30.7586C106.282 -31.4648 105.883 -32.171 105.472 -32.8635C77.9368 -23.3087 50.4016 -13.7538 22.8665 -4.19891C22.7122 -4.14418 22.5787 -4.07122 22.466 -3.98006C17.0408 -9.40113 11.6156 -14.8222 6.2019 -20.2569C36.0082 -29.7441 65.804 -39.2405 95.6103 -48.7276C95.1454 -49.4202 94.6805 -50.1127 94.2041 -50.7915C64.2436 -41.2496 34.2612 -31.7031 4.3007 -22.1611C0.239584 -26.2201 -3.82152 -30.2791 -7.89303 -34.3472C20.7538 -46.7504 49.3788 -59.1491 78.0257 -71.5524C77.4814 -72.1719 76.9153 -72.787 76.3596 -73.3929C47.6794 -60.9714 18.9992 -48.5499 -9.66954 -36.1421C-13.9998 -40.4607 -18.3185 -44.793 -22.6487 -49.1116C4.31799 -63.9614 31.7019 -77.3531 59.3603 -89.2457C58.6619 -89.8106 57.9519 -90.3617 57.2523 -90.9038C29.7345 -79.0067 2.51303 -65.615 -24.3224 -50.7926C-31.3496 -57.8081 -38.3549 -64.8282 -45.3822 -71.8437C-21.2496 -85.1889 3.18764 -97.4359 27.8419 -108.567C26.8557 -109.004 25.8788 -109.409 24.9019 -109.814C0.819817 -98.8706 -23.0545 -86.8425 -46.6325 -73.7709C-46.7774 -73.6842 -46.8901 -73.5931 -47.0143 -73.4882C-49.97 -76.4356 -52.9142 -79.3967 -55.87 -82.3441C-36.853 -93.8104 -17.837 -105.254 1.17996 -116.72C0.0203512 -116.929 -1.11847 -117.12 -2.28026 -117.284C-20.6945 -106.192 -39.1087 -95.0993 -57.5343 -83.9932C-60.4589 -86.9133 -63.3834 -89.8334 -66.2965 -92.7672C-67.8238 -91.1855 -69.2888 -89.5491 -70.6914 -87.8581C-69.8748 -87.0472 -69.0686 -86.2455 -68.2635 -85.4209C-75.985 -67.1865 -83.6951 -48.9658 -91.4167 -30.7314C-91.3299 -29.1593 -91.1889 -27.5873 -90.9926 -26.038C-82.8552 -45.2613 -74.7064 -64.4984 -66.569 -83.7217C-63.9655 -81.1068 -61.3402 -78.4965 -58.7367 -75.8816C-68.1936 -53.0899 -77.6506 -30.2981 -87.1295 -7.50173C-86.8041 -6.3854 -86.4683 -5.25996 -86.1107 -4.13907C-76.4212 -27.4869 -66.7317 -50.8346 -57.0318 -74.1733C-52.9811 -70.1235 -48.9304 -66.0736 -44.8797 -62.0237C-56.0172 -36.2649 -67.1444 -10.497 -78.2819 15.2618C-77.857 16.1092 -77.4216 16.9658 -76.9759 17.8315C-65.7158 -8.22356 -54.4557 -34.2786 -43.1956 -60.3336C-39.6612 -56.8077 -36.1279 -53.2589 -32.5935 -49.7329C-32.4896 -49.6418 -32.3971 -49.537 -32.3047 -49.4323C-42.9731 -21.7187 -54.8853 5.73549 -68.0036 32.8209C-67.5283 33.5226 -67.0415 34.2105 -66.5662 34.9121C-53.356 7.71728 -41.3405 -19.86 -30.5906 -47.6921C-30.1355 -47.2456 -29.6815 -46.7764 -29.2265 -46.33C-29.157 -46.1978 -29.0531 -46.1067 -28.9366 -46.0521C-25.9705 -43.0955 -23.0158 -40.1253 -20.0497 -37.1688C-29.5625 -7.13613 -40.3453 22.7329 -52.3835 52.3562C-51.8163 52.9484 -51.2491 53.5406 -50.6819 54.1329C-38.5573 24.5141 -27.7422 -5.35038 -18.1868 -35.3694Z" fill="#97C9CE"/>
<path d="M-41.7195 51.9815C-56.8667 58.4929 -79.4032 54.2618 -87.4733 52.412C-79.4625 59.6232 -72.0122 67.144 -65.137 74.937C-11.9362 63.823 42.936 79.1576 42.936 79.1576C42.936 79.1576 30.289 78.0541 -3.64304 82.4293C-33.5875 86.2926 -55.8897 79.4727 -63.7181 76.5215C-57.3192 83.8887 -51.4391 91.4971 -46.0764 99.3285C-44.1312 102.159 -42.279 105.036 -40.4811 107.925C-24.5918 112.435 -1.39747 100.573 22.5703 99.192C40.6301 98.1593 62.5476 120.409 62.5476 120.409C62.5476 120.409 40.9756 102.58 14.7341 112.214C-6.21983 119.918 -31.1672 111.724 -40.3742 108.117C-34.6742 117.322 -29.6933 126.822 -25.4282 136.58C-20.4069 136.22 -3.62261 135.158 13.2343 135.843C33.0807 136.647 77.2439 146.728 77.2439 146.728C77.2439 146.728 59.812 150.63 34.7032 150.888C14.4263 151.113 -17.1655 140.225 -25.0916 137.373C-21.6003 145.482 -18.6038 153.76 -16.1196 162.209C-11.0432 162.416 6.12406 163.203 23.9685 164.942C45.2422 167.041 97.0321 187.597 97.0321 187.597C97.0321 187.597 81.2616 186.09 47.4892 183.209C18.4552 180.74 -8.75974 167.001 -15.8346 163.178C-13.6309 170.802 -11.8467 178.55 -10.4645 186.422C-6.39366 191.267 3.31143 206.435 5.05359 242.3C7.11282 284.469 4.57476 298.191 4.57476 298.191C4.57476 298.191 -24.4261 227.496 -13.1934 187.543C-14.4119 180.411 -15.97 173.501 -17.8166 166.835C-21.279 174.686 -34.3601 202.697 -54.861 227.559C-78.9729 256.813 -87.2095 264.648 -87.2095 264.648C-87.2095 264.648 -58.3836 208.225 -42.2879 190.253C-29.5909 176.095 -21.1319 168.353 -18.1063 165.72C-20.6726 156.611 -23.7758 147.941 -27.307 139.685C-30.801 147.296 -44.9586 176.022 -66.0401 189.842C-90.4811 205.865 -99.5045 228.276 -99.5045 228.276C-99.5045 228.276 -96.1245 204.861 -67.5503 178.675C-43.853 156.943 -31.2061 143.142 -27.5701 139.061C-32.237 128.25 -37.6092 118.169 -43.4898 108.802C-45.9072 115.699 -54.3587 136.695 -72.6346 152.666C-94.8047 172.041 -113.974 202.197 -113.974 202.197C-113.974 202.197 -99.0328 158.931 -74.4227 132.607C-56.6722 113.613 -48.0554 108.443 -44.6251 107.026C-51.4049 96.4139 -58.8023 86.7404 -66.4411 77.9688C-67.7275 84.1389 -73.0488 104.288 -90.9903 126.764C-112.557 153.792 -129.288 174.659 -129.288 174.659C-129.288 174.659 -95.5881 96.5576 -67.3742 76.9016C-75.0035 68.2215 -82.8743 60.4433 -90.6103 53.53C-91.1419 59.01 -93.9309 75.6996 -108.859 91.7508C-127.052 111.319 -131.18 122.407 -134.828 137.801C-134.828 137.801 -132.561 104.907 -120.438 89.8416C-106.256 72.2151 -93.9378 63.2245 -90.9077 53.2844C-96.0656 48.6815 -101.17 44.4645 -106.113 40.6254C-145.683 9.81881 -183.082 -3.79344 -183.442 -3.93621C-184.199 -4.2071 -184.585 -5.04134 -184.32 -5.81408C-184.292 -5.92029 -184.232 -6.00519 -184.188 -6.09175C-183.835 -6.65677 -183.135 -6.93519 -182.481 -6.71024C-182.102 -6.58378 -144.343 7.17124 -104.42 38.2104C-98.9963 42.4214 -93.7804 46.7759 -88.7696 51.2379C-82.1972 49.6283 -58.1857 43.6456 -42.6439 38.6582C-24.5065 32.8461 17.3058 52.4233 17.3058 52.4233C17.3058 52.4233 -22.9722 43.9424 -41.7195 51.9815Z" fill="#FCF4DF"/>
<path d="M78.2278 545.583C78.2278 545.583 -57.1812 601.277 -111.603 678.81C-130.072 705.115 -138.193 728.84 -140.846 748.71C-146.391 790.135 -106.512 822.332 -67.9417 807.585C-49.444 800.513 -28.4616 787.183 -7.3087 763.038C55.0183 691.883 78.2278 545.583 78.2278 545.583Z" fill="#1A4143"/>
<path d="M-74.0528 744.244C-70.0279 739.094 -66.0004 733.956 -61.9755 728.806C-38.4975 733.308 -15.017 737.822 8.47267 742.322C8.90256 741.683 9.33242 741.043 9.74792 740.395C-13.6659 735.903 -37.0798 731.41 -60.4936 726.918C-56.6902 722.058 -52.8775 717.183 -49.074 712.323C-26.546 716.268 -4.20643 721.223 17.8688 727.18C18.2254 726.546 18.5964 725.92 18.9531 725.285C-2.99661 719.336 -25.1871 714.384 -47.5831 710.421C-43.925 705.745 -40.267 701.069 -36.6089 696.393C-15.4432 701.069 5.71065 705.747 26.8763 710.424C27.2042 709.77 27.5321 709.117 27.8574 708.452C6.8604 703.812 -14.151 699.163 -35.1481 694.523C-31.3171 689.618 -27.4717 684.723 -23.6407 679.819C-3.52464 682.456 16.4751 685.923 36.2996 690.233C36.587 689.564 36.877 688.907 37.1526 688.241C17.5464 683.968 -2.22843 680.511 -22.1222 677.873C-18.1733 672.828 -14.2244 667.783 -10.2781 662.727C7.75618 665.346 25.6637 668.748 43.3831 672.933C43.6469 672.269 43.8964 671.597 44.1602 670.933C26.6736 666.794 9.01706 663.41 -8.76872 660.796C-5.55615 656.687 -2.33178 652.576 0.880789 648.468C17.2674 650.165 33.5575 652.613 49.7013 655.81C49.9364 655.128 50.1741 654.458 50.4091 653.776C34.5334 650.618 18.5323 648.191 2.42944 646.49C6.34822 641.477 10.267 636.465 14.1858 631.452C28.3321 631.551 42.3925 633.187 56.1603 636.321C56.3718 635.645 56.5834 634.969 56.7923 634.28C43.3474 631.209 29.6323 629.568 15.8196 629.354C17.156 627.651 18.4898 625.936 19.8261 624.233C20.1781 624.088 20.4584 623.785 20.5232 623.343C21.4901 622.103 22.4596 620.874 23.4265 619.633C35.776 618.92 48.0842 620.462 59.8413 624.189C60.0384 623.503 60.2382 622.83 60.4354 622.144C49.0286 618.549 37.1285 616.95 25.1599 617.424C28.1026 613.667 31.0335 609.912 33.9761 606.155C44.0946 606.387 54.1427 607.376 64.0824 609.117C64.2652 608.422 64.4506 607.739 64.6334 607.045C55.0402 605.361 45.3399 604.379 35.5916 604.086C38.3194 600.592 41.0616 597.108 43.7895 593.614C50.4385 594.84 57.0732 596.058 63.7222 597.284C64.8164 597.482 65.9276 597.7 67.0218 597.897C67.1929 597.205 67.3665 596.525 67.5402 595.845C65.9047 595.548 64.2876 595.221 62.6757 594.919C56.8764 593.846 51.0797 592.785 45.2804 591.712C47.5929 588.753 49.8963 585.81 52.2087 582.851C58.3051 582.902 64.3945 583.205 70.4586 583.79C70.6271 583.086 70.7837 582.385 70.943 581.695C65.2698 581.145 59.5727 580.826 53.8661 580.748C56.5664 577.298 59.2549 573.85 61.9578 570.412C65.7407 570.574 69.4985 570.905 73.2363 571.429C73.3904 570.715 73.5353 570.017 73.6828 569.33C70.3293 568.868 66.9429 568.539 63.5523 568.361C65.177 566.277 66.8042 564.206 68.4288 562.122C70.6609 562.206 72.8904 562.277 75.1107 562.363C75.2622 561.638 75.3953 560.942 75.531 560.258C73.6991 560.195 71.8671 560.132 70.0469 560.065C72.4747 556.955 74.9051 553.856 77.3447 550.743C77.942 547.405 78.2259 545.583 78.2259 545.583C78.2259 545.583 76.5785 546.255 73.5859 547.565C70.8764 551.03 68.167 554.494 65.4575 557.959C65.5066 555.74 65.3856 553.535 65.1326 551.349C64.4809 551.651 63.8175 551.955 63.1305 552.265C63.41 555.086 63.4515 557.948 63.2144 560.838C61.3291 563.258 59.4293 565.669 57.5439 568.089C57.6419 563.764 57.3672 559.488 56.7197 555.261C56.068 555.563 55.4189 555.877 54.7463 556.196C55.396 560.661 55.6194 565.213 55.4007 569.779C55.3806 570.085 55.4823 570.325 55.635 570.515C52.1499 574.963 48.6766 579.407 45.1915 583.855C44.8325 576.463 44.2067 569.095 43.3402 561.757C42.682 562.086 42.0119 562.417 41.3445 562.761C42.2586 570.601 42.885 578.483 43.2184 586.383C40.0936 590.384 36.957 594.387 33.8322 598.387C33.183 588.239 32.2763 578.102 31.1315 568.007C30.4641 568.35 29.811 568.703 29.1344 569.061C30.3216 579.635 31.2447 590.245 31.8891 600.883C28.0581 605.787 24.2154 610.694 20.3844 615.599C19.9638 602.124 19.0307 588.682 17.6018 575.291C16.9395 575.658 16.2773 576.025 15.6033 576.395C17.0654 590.28 17.9848 604.228 18.3653 618.2C15.8406 621.434 13.3041 624.67 10.7793 627.904C7.88635 613.298 4.99339 598.693 2.10043 584.087C1.46434 584.461 0.828243 584.834 0.180378 585.211C3.1369 600.165 6.1052 615.117 9.06432 630.083C4.15767 636.354 -0.748986 642.625 -5.65564 648.896C-6.32794 629.773 -8.02555 610.712 -10.7421 591.801C-11.3965 592.204 -12.0392 592.604 -12.6936 593.007C-9.95166 612.377 -8.26647 631.892 -7.66809 651.471C-12.1568 657.218 -16.6481 662.953 -21.1486 668.703C-24.8912 647.747 -28.6364 626.78 -32.3791 605.824C-33.0139 606.26 -33.6514 606.684 -34.2745 607.118C-30.4761 628.386 -26.6777 649.655 -22.8676 670.921C-24.58 673.113 -26.2924 675.305 -28.0075 677.485C-30.0868 680.151 -32.1804 682.807 -34.2597 685.473C-38.8246 662.614 -43.3921 639.742 -47.957 616.883C-48.5749 617.34 -49.2046 617.8 -49.8199 618.269C-45.1979 641.391 -40.585 664.528 -35.9629 687.65C-39.1755 691.758 -42.3881 695.867 -45.6007 699.975C-52.4893 677.066 -59.3778 654.158 -66.2782 631.252C-66.8648 631.739 -67.4513 632.227 -68.0353 632.726C-61.122 655.692 -54.2204 678.66 -47.3071 701.626C-47.2667 701.755 -47.208 701.854 -47.1493 701.953C-51.7468 707.826 -56.3324 713.696 -60.9299 719.569C-67.7198 694.555 -74.498 669.538 -81.288 644.524C-81.8616 645.072 -82.447 645.622 -83.0206 646.169C-76.1994 671.326 -69.3783 696.483 -62.5453 721.638C-65.9911 726.039 -69.4251 730.437 -72.8709 734.838C-82.0616 711.41 -91.2666 687.974 -100.457 664.546C-100.98 665.157 -101.491 665.765 -101.999 666.385C-92.7889 689.845 -83.5879 713.32 -74.3777 736.781C-78.0475 741.46 -81.7029 746.148 -85.3728 750.826C-96.6141 729.343 -106.657 707.23 -115.465 684.592C-115.948 685.332 -116.421 686.056 -116.88 686.79C-108.062 709.3 -98.0215 731.289 -86.7825 752.647C-92.723 760.249 -98.6777 767.842 -104.618 775.444C-114.734 756.234 -123.928 736.545 -132.207 716.456C-132.59 717.423 -132.953 718.372 -133.312 719.334C-125.161 738.951 -116.118 758.173 -106.212 776.931C-106.151 777.042 -106.08 777.139 -105.989 777.218C-108.483 780.419 -110.992 783.612 -113.487 786.813C-122.222 771.847 -130.945 756.878 -139.678 741.924C-139.889 743.002 -140.076 744.074 -140.254 745.131C-131.796 759.622 -123.337 774.113 -114.89 788.607C-117.369 791.767 -119.845 794.939 -122.312 798.096C-121.078 799.164 -119.781 800.18 -118.459 801.14C-117.771 800.265 -117.083 799.39 -116.396 798.515C-101.78 802.079 -87.1639 805.644 -72.5598 809.211C-71.2778 808.85 -69.9969 808.427 -68.7121 807.965C-84.1266 804.198 -99.5386 800.442 -114.965 796.677C-112.747 793.854 -110.543 791.021 -108.325 788.197C-90.0499 792.492 -71.7658 796.771 -53.4908 801.066C-52.5708 800.576 -51.6442 800.059 -50.7202 799.531C-69.437 795.139 -88.1656 790.749 -106.885 786.345C-103.448 781.959 -100.024 777.575 -96.5869 773.189C-75.9399 778.437 -55.2955 783.673 -34.6486 788.922C-33.9377 788.38 -33.2268 787.838 -32.5093 787.27C-53.3916 781.964 -74.2713 776.669 -95.1418 771.36C-92.1532 767.53 -89.1503 763.708 -86.1618 759.878C-86.074 759.77 -85.998 759.664 -85.9102 759.556C-63.6536 764.016 -41.6603 769.654 -19.9995 776.435C-19.4142 775.885 -18.8314 775.323 -18.2513 774.749C-40.0008 767.901 -62.0921 762.211 -84.4376 757.683C-84.0498 757.192 -83.6619 756.7 -83.2859 756.212C-83.1812 756.125 -83.0934 756.016 -83.0435 755.904C-80.5371 752.7 -78.0308 749.496 -75.5126 746.289C-51.3354 749.287 -27.3339 753.467 -3.56565 758.792C-3.06912 758.175 -2.5582 757.567 -2.06427 756.938C-25.8965 751.49 -49.8888 747.295 -74.0528 744.244Z" fill="#2F8C91"/>
</g>
<defs>
<clipPath id="clip0_6_241">
<rect width="667" height="169" fill="white" transform="translate(0 667) rotate(-90)"/>
</clipPath>
</defs>
</svg>
